<?xml version="1.0" encoding="UTF-8" standalone="no"?><!DOCTYPE svg PUBLIC "-//W3C//DTD SVG 1.1//EN" "http://www.w3.org/Graphics/SVG/1.1/DTD/svg11.dtd"><!-- Generated by graphviz version 2.40.1 (20161225.0304)
 --><!-- Title: G Pages: 1 --><svg xmlns="http://www.w3.org/2000/svg" xmlns:xlink="http://www.w3.org/1999/xlink" width="1676pt" height="714pt" viewBox="0.00 0.00 1676.20 713.54">
<g id="graph0" class="graph" transform="scale(1 1) rotate(0) translate(4 709.541)">
<title>G</title>
<polygon fill="#ffffff" stroke="transparent" points="-4,4 -4,-709.541 1672.2049,-709.541 1672.2049,4 -4,4"/>
<!-- S2 -->
<g id="node1" class="node">
<title>S2</title>
<ellipse fill="none" stroke="#000000" cx="258.0617" cy="-473.7557" rx="21.4691" ry="21.4691"/>
<text text-anchor="middle" x="258.0617" y="-469.5557" font-family="Times,serif" font-size="14.00" fill="#000000">S2</text>
</g>
<!-- S2&#45;&gt;S2 -->
<g id="edge3" class="edge">
<title>S2-&gt;S2</title>
<path fill="none" stroke="#000000" d="M277.0353,-483.7533C287.5825,-485.6195 297.295,-482.287 297.295,-473.7557 297.295,-468.1571 293.1122,-464.7974 287.2556,-463.6766"/>
<polygon fill="#000000" stroke="#000000" points="287.007,-460.1783 277.0353,-463.7582 287.0629,-467.1781 287.007,-460.1783"/>
<text text-anchor="middle" x="309.3399" y="-469.5557" font-family="Times,serif" font-size="14.00" fill="#000000">char</text>
</g>
<!-- S3 -->
<g id="node11" class="node">
<title>S3</title>
<ellipse fill="none" stroke="#000000" cx="258.0617" cy="-360.8322" rx="21.4314" ry="21.4314"/>
<ellipse fill="none" stroke="#000000" cx="258.0617" cy="-360.8322" rx="25.4687" ry="25.4687"/>
<text text-anchor="middle" x="258.0617" y="-356.6322" font-family="Times,serif" font-size="14.00" fill="#000000">S3</text>
</g>
<!-- S2&#45;&gt;S3 -->
<g id="edge4" class="edge">
<title>S2-&gt;S3</title>
<path fill="none" stroke="#000000" d="M258.0617,-452.5157C258.0617,-436.7406 258.0617,-414.858 258.0617,-396.4274"/>
<polygon fill="#000000" stroke="#000000" points="261.5618,-396.3263 258.0617,-386.3263 254.5618,-396.3263 261.5618,-396.3263"/>
<text text-anchor="middle" x="275.1676" y="-413.094" font-family="Times,serif" font-size="14.00" fill="#000000">  EOL</text>
</g>
<!-- S4 -->
<g id="node2" class="node">
<title>S4</title>
<ellipse fill="none" stroke="#000000" cx="360.0617" cy="-473.7557" rx="21.4691" ry="21.4691"/>
<text text-anchor="middle" x="360.0617" y="-469.5557" font-family="Times,serif" font-size="14.00" fill="#000000">S4</text>
</g>
<!-- S4&#45;&gt;S4 -->
<g id="edge6" class="edge">
<title>S4-&gt;S4</title>
<path fill="none" stroke="#000000" d="M379.0353,-483.7533C389.5825,-485.6195 399.295,-482.287 399.295,-473.7557 399.295,-468.1571 395.1122,-464.7974 389.2556,-463.6766"/>
<polygon fill="#000000" stroke="#000000" points="389.007,-460.1783 379.0353,-463.7582 389.0629,-467.1781 389.007,-460.1783"/>
<text text-anchor="middle" x="414.8399" y="-469.5557" font-family="Times,serif" font-size="14.00" fill="#000000">  char</text>
</g>
<!-- S5 -->
<g id="node3" class="node">
<title>S5</title>
<ellipse fill="none" stroke="#000000" cx="360.0617" cy="-360.8322" rx="21.4691" ry="21.4691"/>
<text text-anchor="middle" x="360.0617" y="-356.6322" font-family="Times,serif" font-size="14.00" fill="#000000">S5</text>
</g>
<!-- S4&#45;&gt;S5 -->
<g id="edge7" class="edge">
<title>S4-&gt;S5</title>
<path fill="none" stroke="#000000" d="M351.3195,-454.3308C346.5768,-441.5273 342.1336,-424.3342 344.5617,-408.894 345.5215,-402.7908 347.1274,-396.4059 348.951,-390.3568"/>
<polygon fill="#000000" stroke="#000000" points="352.3593,-391.1954 352.1497,-380.6027 345.7078,-389.0141 352.3593,-391.1954"/>
<text text-anchor="middle" x="350.3117" y="-413.094" font-family="Times,serif" font-size="14.00" fill="#000000"> *</text>
</g>
<!-- S5&#45;&gt;S4 -->
<g id="edge9" class="edge">
<title>S5-&gt;S4</title>
<path fill="none" stroke="#000000" d="M360.0617,-382.361C360.0617,-399.367 360.0617,-423.3377 360.0617,-442.4636"/>
<polygon fill="#000000" stroke="#000000" points="356.5618,-442.5157 360.0617,-452.5157 363.5618,-442.5157 356.5618,-442.5157"/>
<text text-anchor="middle" x="375.6066" y="-413.094" font-family="Times,serif" font-size="14.00" fill="#000000">  char</text>
</g>
<!-- S6 -->
<g id="node12" class="node">
<title>S6</title>
<ellipse fill="none" stroke="#000000" cx="360.0617" cy="-251.9087" rx="21.4314" ry="21.4314"/>
<ellipse fill="none" stroke="#000000" cx="360.0617" cy="-251.9087" rx="25.4687" ry="25.4687"/>
<text text-anchor="middle" x="360.0617" y="-247.7087" font-family="Times,serif" font-size="14.00" fill="#000000">S6</text>
</g>
<!-- S5&#45;&gt;S6 -->
<g id="edge8" class="edge">
<title>S5-&gt;S6</title>
<path fill="none" stroke="#000000" d="M360.0617,-339.5721C360.0617,-324.8062 360.0617,-304.7749 360.0617,-287.5876"/>
<polygon fill="#000000" stroke="#000000" points="363.5618,-287.3261 360.0617,-277.3262 356.5618,-287.3262 363.5618,-287.3261"/>
<text text-anchor="middle" x="426.6723" y="-300.1705" font-family="Times,serif" font-size="14.00" fill="#000000">  / &amp;&amp; nested_mlc == 0</text>
</g>
<!-- S29 -->
<g id="node4" class="node">
<title>S29</title>
<ellipse fill="none" stroke="#000000" cx="1418.0617" cy="-473.7557" rx="26.1236" ry="26.1236"/>
<text text-anchor="middle" x="1418.0617" y="-469.5557" font-family="Times,serif" font-size="14.00" fill="#000000">S29</text>
</g>
<!-- S30 -->
<g id="node33" class="node">
<title>S30</title>
<ellipse fill="none" stroke="#000000" cx="1377.0617" cy="-360.8322" rx="26.1154" ry="26.1154"/>
<ellipse fill="none" stroke="#000000" cx="1377.0617" cy="-360.8322" rx="30.1236" ry="30.1236"/>
<text text-anchor="middle" x="1377.0617" y="-356.6322" font-family="Times,serif" font-size="14.00" fill="#000000">S30</text>
</g>
<!-- S29&#45;&gt;S30 -->
<g id="edge32" class="edge">
<title>S29-&gt;S30</title>
<path fill="none" stroke="#000000" d="M1409.1654,-449.253C1403.8103,-434.504 1396.8801,-415.4167 1390.8299,-398.753"/>
<polygon fill="#000000" stroke="#000000" points="1394.0907,-397.478 1387.3879,-389.2729 1387.5109,-399.867 1394.0907,-397.478"/>
<text text-anchor="middle" x="1412.3117" y="-413.094" font-family="Times,serif" font-size="14.00" fill="#000000">0...9</text>
</g>
<!-- S31 -->
<g id="node5" class="node">
<title>S31</title>
<ellipse fill="none" stroke="#000000" cx="1443.0617" cy="-251.9087" rx="26.1236" ry="26.1236"/>
<text text-anchor="middle" x="1443.0617" y="-247.7087" font-family="Times,serif" font-size="14.00" fill="#000000">S31</text>
</g>
<!-- S33 -->
<g id="node6" class="node">
<title>S33</title>
<ellipse fill="none" stroke="#000000" cx="1375.0617" cy="-142.9852" rx="26.1236" ry="26.1236"/>
<text text-anchor="middle" x="1375.0617" y="-138.7852" font-family="Times,serif" font-size="14.00" fill="#000000">S33</text>
</g>
<!-- S31&#45;&gt;S33 -->
<g id="edge37" class="edge">
<title>S31-&gt;S33</title>
<path fill="none" stroke="#000000" d="M1429.1368,-229.6036C1419.1442,-213.5972 1405.5471,-191.8171 1394.4876,-174.1019"/>
<polygon fill="#000000" stroke="#000000" points="1397.2327,-171.8898 1388.968,-165.2606 1391.2948,-175.5968 1397.2327,-171.8898"/>
<text text-anchor="middle" x="1422.3393" y="-195.247" font-family="Times,serif" font-size="14.00" fill="#000000">+-</text>
</g>
<!-- S32 -->
<g id="node34" class="node">
<title>S32</title>
<ellipse fill="none" stroke="#000000" cx="1491.0617" cy="-142.9852" rx="26.1154" ry="26.1154"/>
<ellipse fill="none" stroke="#000000" cx="1491.0617" cy="-142.9852" rx="30.1236" ry="30.1236"/>
<text text-anchor="middle" x="1491.0617" y="-138.7852" font-family="Times,serif" font-size="14.00" fill="#000000">S32</text>
</g>
<!-- S31&#45;&gt;S32 -->
<g id="edge36" class="edge">
<title>S31-&gt;S32</title>
<path fill="none" stroke="#000000" d="M1453.5956,-228.005C1459.766,-214.0027 1467.6924,-196.0159 1474.6643,-180.195"/>
<polygon fill="#000000" stroke="#000000" points="1478.0278,-181.2415 1478.8577,-170.6792 1471.6222,-178.4187 1478.0278,-181.2415"/>
<text text-anchor="middle" x="1481.3117" y="-195.247" font-family="Times,serif" font-size="14.00" fill="#000000">0...9</text>
</g>
<!-- S33&#45;&gt;S33 -->
<g id="edge39" class="edge">
<title>S33-&gt;S33</title>
<path fill="none" stroke="#000000" d="M1399.0827,-153.3212C1409.8292,-154.3056 1419.1235,-150.8602 1419.1235,-142.9852 1419.1235,-137.8173 1415.1208,-134.557 1409.3317,-133.2045"/>
<polygon fill="#000000" stroke="#000000" points="1409.2574,-129.6954 1399.0827,-132.6493 1408.8787,-136.6851 1409.2574,-129.6954"/>
<text text-anchor="middle" x="1431.3735" y="-138.7852" font-family="Times,serif" font-size="14.00" fill="#000000">0...9</text>
</g>
<!-- S34 -->
<g id="node35" class="node">
<title>S34</title>
<ellipse fill="none" stroke="#000000" cx="1375.0617" cy="-30.0617" rx="26.1154" ry="26.1154"/>
<ellipse fill="none" stroke="#000000" cx="1375.0617" cy="-30.0617" rx="30.1236" ry="30.1236"/>
<text text-anchor="middle" x="1375.0617" y="-25.8617" font-family="Times,serif" font-size="14.00" fill="#000000">S34</text>
</g>
<!-- S33&#45;&gt;S34 -->
<g id="edge40" class="edge">
<title>S33-&gt;S34</title>
<path fill="none" stroke="#000000" d="M1375.0617,-116.7945C1375.0617,-103.1366 1375.0617,-86.1236 1375.0617,-70.7923"/>
<polygon fill="#000000" stroke="#000000" points="1378.5618,-70.5089 1375.0617,-60.5089 1371.5618,-70.5089 1378.5618,-70.5089"/>
<text text-anchor="middle" x="1387.3117" y="-82.3235" font-family="Times,serif" font-size="14.00" fill="#000000">0...9</text>
</g>
<!-- S37 -->
<g id="node7" class="node">
<title>S37</title>
<ellipse fill="none" stroke="#000000" cx="59.0617" cy="-586.6792" rx="26.1236" ry="26.1236"/>
<text text-anchor="middle" x="59.0617" y="-582.4792" font-family="Times,serif" font-size="14.00" fill="#000000">S37</text>
</g>
<!-- S37&#45;&gt;S37 -->
<g id="edge46" class="edge">
<title>S37-&gt;S37</title>
<path fill="none" stroke="#000000" d="M83.0827,-597.0152C93.8292,-597.9995 103.1235,-594.5542 103.1235,-586.6792 103.1235,-581.5113 99.1208,-578.251 93.3317,-576.8984"/>
<polygon fill="#000000" stroke="#000000" points="93.2574,-573.3894 83.0827,-576.3433 92.8787,-580.3791 93.2574,-573.3894"/>
<text text-anchor="middle" x="115.1684" y="-582.4792" font-family="Times,serif" font-size="14.00" fill="#000000">char</text>
</g>
<!-- S39 -->
<g id="node8" class="node">
<title>S39</title>
<ellipse fill="none" stroke="#000000" cx="26.0617" cy="-473.7557" rx="26.1236" ry="26.1236"/>
<text text-anchor="middle" x="26.0617" y="-469.5557" font-family="Times,serif" font-size="14.00" fill="#000000">S39</text>
</g>
<!-- S37&#45;&gt;S39 -->
<g id="edge48" class="edge">
<title>S37-&gt;S39</title>
<path fill="none" stroke="#000000" d="M44.4432,-565.0583C39.7404,-557.0765 35.0151,-547.746 32.1711,-538.6175 29.3846,-529.6732 27.7617,-519.7268 26.8411,-510.363"/>
<polygon fill="#000000" stroke="#000000" points="30.3114,-509.8343 26.0756,-500.1231 23.3309,-510.3562 30.3114,-509.8343"/>
<text text-anchor="middle" x="35.007" y="-526.0175" font-family="Times,serif" font-size="14.00" fill="#000000">\</text>
</g>
<!-- S38 -->
<g id="node38" class="node">
<title>S38</title>
<ellipse fill="none" stroke="#000000" cx="100.0617" cy="-473.7557" rx="26.1154" ry="26.1154"/>
<ellipse fill="none" stroke="#000000" cx="100.0617" cy="-473.7557" rx="30.1236" ry="30.1236"/>
<text text-anchor="middle" x="100.0617" y="-469.5557" font-family="Times,serif" font-size="14.00" fill="#000000">S38</text>
</g>
<!-- S37&#45;&gt;S38 -->
<g id="edge47" class="edge">
<title>S37-&gt;S38</title>
<path fill="none" stroke="#000000" d="M67.9581,-562.1765C73.3132,-547.4275 80.2434,-528.3402 86.2936,-511.6765"/>
<polygon fill="#000000" stroke="#000000" points="89.6126,-512.7905 89.7356,-502.1964 83.0328,-510.4015 89.6126,-512.7905"/>
<text text-anchor="middle" x="86.7223" y="-526.0175" font-family="Times,serif" font-size="14.00" fill="#000000">''</text>
</g>
<!-- S39&#45;&gt;S37 -->
<g id="edge49" class="edge">
<title>S39-&gt;S37</title>
<path fill="none" stroke="#000000" d="M33.4792,-499.1375C38.0374,-514.7356 43.939,-534.9304 48.9251,-551.9924"/>
<polygon fill="#000000" stroke="#000000" points="45.5734,-553.0011 51.738,-561.6178 52.2924,-551.0375 45.5734,-553.0011"/>
<text text-anchor="middle" x="57.1066" y="-526.0175" font-family="Times,serif" font-size="14.00" fill="#000000">char</text>
</g>
<!-- S40 -->
<g id="node9" class="node">
<title>S40</title>
<ellipse fill="none" stroke="#000000" cx="174.0617" cy="-586.6792" rx="26.1236" ry="26.1236"/>
<text text-anchor="middle" x="174.0617" y="-582.4792" font-family="Times,serif" font-size="14.00" fill="#000000">S40</text>
</g>
<!-- S40&#45;&gt;S40 -->
<g id="edge51" class="edge">
<title>S40-&gt;S40</title>
<path fill="none" stroke="#000000" d="M198.0827,-597.0152C208.8292,-597.9995 218.1235,-594.5542 218.1235,-586.6792 218.1235,-581.5113 214.1208,-578.251 208.3317,-576.8984"/>
<polygon fill="#000000" stroke="#000000" points="208.2574,-573.3894 198.0827,-576.3433 207.8787,-580.3791 208.2574,-573.3894"/>
<text text-anchor="middle" x="230.1684" y="-582.4792" font-family="Times,serif" font-size="14.00" fill="#000000">char</text>
</g>
<!-- S41 -->
<g id="node39" class="node">
<title>S41</title>
<ellipse fill="none" stroke="#000000" cx="178.0617" cy="-473.7557" rx="26.1154" ry="26.1154"/>
<ellipse fill="none" stroke="#000000" cx="178.0617" cy="-473.7557" rx="30.1236" ry="30.1236"/>
<text text-anchor="middle" x="178.0617" y="-469.5557" font-family="Times,serif" font-size="14.00" fill="#000000">S41</text>
</g>
<!-- S40&#45;&gt;S41 -->
<g id="edge52" class="edge">
<title>S40-&gt;S41</title>
<path fill="none" stroke="#000000" d="M174.9895,-560.4885C175.4733,-546.8306 176.0759,-529.8176 176.619,-514.4863"/>
<polygon fill="#000000" stroke="#000000" points="180.127,-514.3205 176.9832,-504.2029 173.1313,-514.0727 180.127,-514.3205"/>
<text text-anchor="middle" x="194.5435" y="-526.0175" font-family="Times,serif" font-size="14.00" fill="#000000">'' '' ''</text>
</g>
<!-- S1 -->
<g id="node10" class="node">
<title>S1</title>
<ellipse fill="none" stroke="#000000" cx="285.0617" cy="-586.6792" rx="21.4314" ry="21.4314"/>
<ellipse fill="none" stroke="#000000" cx="285.0617" cy="-586.6792" rx="25.4687" ry="25.4687"/>
<text text-anchor="middle" x="285.0617" y="-582.4792" font-family="Times,serif" font-size="14.00" fill="#000000">S1</text>
</g>
<!-- S1&#45;&gt;S2 -->
<g id="edge2" class="edge">
<title>S1-&gt;S2</title>
<path fill="none" stroke="#000000" d="M279.1365,-561.8977C275.095,-544.9947 269.7144,-522.4911 265.4015,-504.4532"/>
<polygon fill="#000000" stroke="#000000" points="268.7969,-503.6028 263.0673,-494.6909 261.9888,-505.2307 268.7969,-503.6028"/>
<text text-anchor="middle" x="279.507" y="-526.0175" font-family="Times,serif" font-size="14.00" fill="#000000">  /</text>
</g>
<!-- S1&#45;&gt;S4 -->
<g id="edge5" class="edge">
<title>S1-&gt;S4</title>
<path fill="none" stroke="#000000" d="M299.1687,-565.4392C311.459,-546.9343 329.331,-520.0254 342.5364,-500.1427"/>
<polygon fill="#000000" stroke="#000000" points="345.6215,-501.8238 348.2385,-491.5573 339.7904,-497.951 345.6215,-501.8238"/>
<text text-anchor="middle" x="334.0617" y="-526.0175" font-family="Times,serif" font-size="14.00" fill="#000000">  *</text>
</g>
<!-- S7 -->
<g id="node13" class="node">
<title>S7</title>
<ellipse fill="none" stroke="#000000" cx="353.0617" cy="-586.6792" rx="21.4314" ry="21.4314"/>
<ellipse fill="none" stroke="#000000" cx="353.0617" cy="-586.6792" rx="25.4687" ry="25.4687"/>
<text text-anchor="middle" x="353.0617" y="-582.4792" font-family="Times,serif" font-size="14.00" fill="#000000">S7</text>
</g>
<!-- S8 -->
<g id="node14" class="node">
<title>S8</title>
<ellipse fill="none" stroke="#000000" cx="421.0617" cy="-586.6792" rx="21.4314" ry="21.4314"/>
<ellipse fill="none" stroke="#000000" cx="421.0617" cy="-586.6792" rx="25.4687" ry="25.4687"/>
<text text-anchor="middle" x="421.0617" y="-582.4792" font-family="Times,serif" font-size="14.00" fill="#000000">S8</text>
</g>
<!-- S9 -->
<g id="node15" class="node">
<title>S9</title>
<ellipse fill="none" stroke="#000000" cx="489.0617" cy="-586.6792" rx="21.4314" ry="21.4314"/>
<ellipse fill="none" stroke="#000000" cx="489.0617" cy="-586.6792" rx="25.4687" ry="25.4687"/>
<text text-anchor="middle" x="489.0617" y="-582.4792" font-family="Times,serif" font-size="14.00" fill="#000000">S9</text>
</g>
<!-- S10 -->
<g id="node16" class="node">
<title>S10</title>
<ellipse fill="none" stroke="#000000" cx="562.0617" cy="-586.6792" rx="26.1154" ry="26.1154"/>
<ellipse fill="none" stroke="#000000" cx="562.0617" cy="-586.6792" rx="30.1236" ry="30.1236"/>
<text text-anchor="middle" x="562.0617" y="-582.4792" font-family="Times,serif" font-size="14.00" fill="#000000">S10</text>
</g>
<!-- S11 -->
<g id="node17" class="node">
<title>S11</title>
<ellipse fill="none" stroke="#000000" cx="640.0617" cy="-586.6792" rx="26.1154" ry="26.1154"/>
<ellipse fill="none" stroke="#000000" cx="640.0617" cy="-586.6792" rx="30.1236" ry="30.1236"/>
<text text-anchor="middle" x="640.0617" y="-582.4792" font-family="Times,serif" font-size="14.00" fill="#000000">S11</text>
</g>
<!-- S12 -->
<g id="node18" class="node">
<title>S12</title>
<ellipse fill="none" stroke="#000000" cx="718.0617" cy="-586.6792" rx="26.1154" ry="26.1154"/>
<ellipse fill="none" stroke="#000000" cx="718.0617" cy="-586.6792" rx="30.1236" ry="30.1236"/>
<text text-anchor="middle" x="718.0617" y="-582.4792" font-family="Times,serif" font-size="14.00" fill="#000000">S12</text>
</g>
<!-- S13 -->
<g id="node19" class="node">
<title>S13</title>
<ellipse fill="none" stroke="#000000" cx="796.0617" cy="-586.6792" rx="26.1154" ry="26.1154"/>
<ellipse fill="none" stroke="#000000" cx="796.0617" cy="-586.6792" rx="30.1236" ry="30.1236"/>
<text text-anchor="middle" x="796.0617" y="-582.4792" font-family="Times,serif" font-size="14.00" fill="#000000">S13</text>
</g>
<!-- S14 -->
<g id="node20" class="node">
<title>S14</title>
<ellipse fill="none" stroke="#000000" cx="874.0617" cy="-586.6792" rx="26.1154" ry="26.1154"/>
<ellipse fill="none" stroke="#000000" cx="874.0617" cy="-586.6792" rx="30.1236" ry="30.1236"/>
<text text-anchor="middle" x="874.0617" y="-582.4792" font-family="Times,serif" font-size="14.00" fill="#000000">S14</text>
</g>
<!-- S15 -->
<g id="node21" class="node">
<title>S15</title>
<ellipse fill="none" stroke="#000000" cx="952.0617" cy="-586.6792" rx="26.1154" ry="26.1154"/>
<ellipse fill="none" stroke="#000000" cx="952.0617" cy="-586.6792" rx="30.1236" ry="30.1236"/>
<text text-anchor="middle" x="952.0617" y="-582.4792" font-family="Times,serif" font-size="14.00" fill="#000000">S15</text>
</g>
<!-- S16 -->
<g id="node22" class="node">
<title>S16</title>
<ellipse fill="none" stroke="#000000" cx="1030.0617" cy="-586.6792" rx="26.1154" ry="26.1154"/>
<ellipse fill="none" stroke="#000000" cx="1030.0617" cy="-586.6792" rx="30.1236" ry="30.1236"/>
<text text-anchor="middle" x="1030.0617" y="-582.4792" font-family="Times,serif" font-size="14.00" fill="#000000">S16</text>
</g>
<!-- S17 -->
<g id="node23" class="node">
<title>S17</title>
<ellipse fill="none" stroke="#000000" cx="1030.0617" cy="-473.7557" rx="26.1154" ry="26.1154"/>
<ellipse fill="none" stroke="#000000" cx="1030.0617" cy="-473.7557" rx="30.1236" ry="30.1236"/>
<text text-anchor="middle" x="1030.0617" y="-469.5557" font-family="Times,serif" font-size="14.00" fill="#000000">S17</text>
</g>
<!-- S16&#45;&gt;S17 -->
<g id="edge20" class="edge">
<title>S16-&gt;S17</title>
<path fill="none" stroke="#000000" d="M1030.0617,-556.4178C1030.0617,-543.5068 1030.0617,-528.2473 1030.0617,-514.3758"/>
<polygon fill="#000000" stroke="#000000" points="1033.5618,-514.1007 1030.0617,-504.1007 1026.5618,-514.1007 1033.5618,-514.1007"/>
<text text-anchor="middle" x="1037.509" y="-526.0175" font-family="Times,serif" font-size="14.00" fill="#000000">  &gt;</text>
</g>
<!-- S18 -->
<g id="node24" class="node">
<title>S18</title>
<ellipse fill="none" stroke="#000000" cx="1108.0617" cy="-586.6792" rx="26.1154" ry="26.1154"/>
<ellipse fill="none" stroke="#000000" cx="1108.0617" cy="-586.6792" rx="30.1236" ry="30.1236"/>
<text text-anchor="middle" x="1108.0617" y="-582.4792" font-family="Times,serif" font-size="14.00" fill="#000000">S18</text>
</g>
<!-- S19 -->
<g id="node25" class="node">
<title>S19</title>
<ellipse fill="none" stroke="#000000" cx="1108.0617" cy="-473.7557" rx="26.1154" ry="26.1154"/>
<ellipse fill="none" stroke="#000000" cx="1108.0617" cy="-473.7557" rx="30.1236" ry="30.1236"/>
<text text-anchor="middle" x="1108.0617" y="-469.5557" font-family="Times,serif" font-size="14.00" fill="#000000">S19</text>
</g>
<!-- S18&#45;&gt;S19 -->
<g id="edge22" class="edge">
<title>S18-&gt;S19</title>
<path fill="none" stroke="#000000" d="M1108.0617,-556.4178C1108.0617,-543.5068 1108.0617,-528.2473 1108.0617,-514.3758"/>
<polygon fill="#000000" stroke="#000000" points="1111.5618,-514.1007 1108.0617,-504.1007 1104.5618,-514.1007 1111.5618,-514.1007"/>
<text text-anchor="middle" x="1112.009" y="-526.0175" font-family="Times,serif" font-size="14.00" fill="#000000">=</text>
</g>
<!-- S20 -->
<g id="node26" class="node">
<title>S20</title>
<ellipse fill="none" stroke="#000000" cx="1186.0617" cy="-586.6792" rx="26.1154" ry="26.1154"/>
<ellipse fill="none" stroke="#000000" cx="1186.0617" cy="-586.6792" rx="30.1236" ry="30.1236"/>
<text text-anchor="middle" x="1186.0617" y="-582.4792" font-family="Times,serif" font-size="14.00" fill="#000000">S20</text>
</g>
<!-- S21 -->
<g id="node27" class="node">
<title>S21</title>
<ellipse fill="none" stroke="#000000" cx="1186.0617" cy="-473.7557" rx="26.1154" ry="26.1154"/>
<ellipse fill="none" stroke="#000000" cx="1186.0617" cy="-473.7557" rx="30.1236" ry="30.1236"/>
<text text-anchor="middle" x="1186.0617" y="-469.5557" font-family="Times,serif" font-size="14.00" fill="#000000">S21</text>
</g>
<!-- S20&#45;&gt;S21 -->
<g id="edge24" class="edge">
<title>S20-&gt;S21</title>
<path fill="none" stroke="#000000" d="M1186.0617,-556.4178C1186.0617,-543.5068 1186.0617,-528.2473 1186.0617,-514.3758"/>
<polygon fill="#000000" stroke="#000000" points="1189.5618,-514.1007 1186.0617,-504.1007 1182.5618,-514.1007 1189.5618,-514.1007"/>
<text text-anchor="middle" x="1190.009" y="-526.0175" font-family="Times,serif" font-size="14.00" fill="#000000">=</text>
</g>
<!-- S22 -->
<g id="node28" class="node">
<title>S22</title>
<ellipse fill="none" stroke="#000000" cx="1264.0617" cy="-586.6792" rx="26.1154" ry="26.1154"/>
<ellipse fill="none" stroke="#000000" cx="1264.0617" cy="-586.6792" rx="30.1236" ry="30.1236"/>
<text text-anchor="middle" x="1264.0617" y="-582.4792" font-family="Times,serif" font-size="14.00" fill="#000000">S22</text>
</g>
<!-- S23 -->
<g id="node29" class="node">
<title>S23</title>
<ellipse fill="none" stroke="#000000" cx="1264.0617" cy="-473.7557" rx="26.1154" ry="26.1154"/>
<ellipse fill="none" stroke="#000000" cx="1264.0617" cy="-473.7557" rx="30.1236" ry="30.1236"/>
<text text-anchor="middle" x="1264.0617" y="-469.5557" font-family="Times,serif" font-size="14.00" fill="#000000">S23</text>
</g>
<!-- S22&#45;&gt;S23 -->
<g id="edge26" class="edge">
<title>S22-&gt;S23</title>
<path fill="none" stroke="#000000" d="M1264.0617,-556.4178C1264.0617,-543.5068 1264.0617,-528.2473 1264.0617,-514.3758"/>
<polygon fill="#000000" stroke="#000000" points="1267.5618,-514.1007 1264.0617,-504.1007 1260.5618,-514.1007 1267.5618,-514.1007"/>
<text text-anchor="middle" x="1268.009" y="-526.0175" font-family="Times,serif" font-size="14.00" fill="#000000">=</text>
</g>
<!-- S24 -->
<g id="node30" class="node">
<title>S24</title>
<ellipse fill="none" stroke="#000000" cx="1342.0617" cy="-586.6792" rx="26.1154" ry="26.1154"/>
<ellipse fill="none" stroke="#000000" cx="1342.0617" cy="-586.6792" rx="30.1236" ry="30.1236"/>
<text text-anchor="middle" x="1342.0617" y="-582.4792" font-family="Times,serif" font-size="14.00" fill="#000000">S24</text>
</g>
<!-- S25 -->
<g id="node31" class="node">
<title>S25</title>
<ellipse fill="none" stroke="#000000" cx="1342.0617" cy="-473.7557" rx="26.1154" ry="26.1154"/>
<ellipse fill="none" stroke="#000000" cx="1342.0617" cy="-473.7557" rx="30.1236" ry="30.1236"/>
<text text-anchor="middle" x="1342.0617" y="-469.5557" font-family="Times,serif" font-size="14.00" fill="#000000">S25</text>
</g>
<!-- S24&#45;&gt;S25 -->
<g id="edge28" class="edge">
<title>S24-&gt;S25</title>
<path fill="none" stroke="#000000" d="M1342.0617,-556.4178C1342.0617,-543.5068 1342.0617,-528.2473 1342.0617,-514.3758"/>
<polygon fill="#000000" stroke="#000000" points="1345.5618,-514.1007 1342.0617,-504.1007 1338.5618,-514.1007 1345.5618,-514.1007"/>
<text text-anchor="middle" x="1346.009" y="-526.0175" font-family="Times,serif" font-size="14.00" fill="#000000">=</text>
</g>
<!-- S28 -->
<g id="node32" class="node">
<title>S28</title>
<ellipse fill="none" stroke="#000000" cx="1420.0617" cy="-586.6792" rx="26.1154" ry="26.1154"/>
<ellipse fill="none" stroke="#000000" cx="1420.0617" cy="-586.6792" rx="30.1236" ry="30.1236"/>
<text text-anchor="middle" x="1420.0617" y="-582.4792" font-family="Times,serif" font-size="14.00" fill="#000000">S28</text>
</g>
<!-- S28&#45;&gt;S29 -->
<g id="edge31" class="edge">
<title>S28-&gt;S29</title>
<path fill="none" stroke="#000000" d="M1419.5258,-556.4178C1419.2744,-542.2237 1418.9727,-525.1911 1418.7087,-510.2849"/>
<polygon fill="#000000" stroke="#000000" points="1422.201,-509.8141 1418.5244,-499.8777 1415.2021,-509.9381 1422.201,-509.8141"/>
<text text-anchor="middle" x="1423.5617" y="-526.0175" font-family="Times,serif" font-size="14.00" fill="#000000"> .</text>
</g>
<!-- S28&#45;&gt;S31 -->
<g id="edge33" class="edge">
<title>S28-&gt;S31</title>
<path fill="none" stroke="#000000" d="M1433.6085,-559.4091C1440.7772,-543.5874 1448.9311,-523.0442 1453.0617,-503.8175 1469.2233,-428.5921 1465.2821,-407.3728 1458.0617,-330.7705 1456.7069,-316.3966 1453.9923,-300.7421 1451.2402,-287.1972"/>
<polygon fill="#000000" stroke="#000000" points="1454.6422,-286.367 1449.1504,-277.3066 1447.7934,-287.8142 1454.6422,-286.367"/>
<text text-anchor="middle" x="1474.3906" y="-413.094" font-family="Times,serif" font-size="14.00" fill="#000000">e/E</text>
</g>
<!-- S28&#45;&gt;S28 -->
<g id="edge30" class="edge">
<title>S28-&gt;S28</title>
<path fill="none" stroke="#000000" d="M1448.6797,-597.1562C1459.3446,-597.4997 1468.1235,-594.0074 1468.1235,-586.6792 1468.1235,-581.8701 1464.3428,-578.713 1458.7293,-577.2078"/>
<polygon fill="#000000" stroke="#000000" points="1458.9785,-573.7154 1448.6797,-576.2023 1458.2815,-580.6806 1458.9785,-573.7154"/>
<text text-anchor="middle" x="1480.3735" y="-582.4792" font-family="Times,serif" font-size="14.00" fill="#000000">0...9</text>
</g>
<!-- S30&#45;&gt;S31 -->
<g id="edge35" class="edge">
<title>S30-&gt;S31</title>
<path fill="none" stroke="#000000" d="M1392.7028,-335.0189C1402.1588,-319.4132 1414.2731,-299.4202 1424.2502,-282.9545"/>
<polygon fill="#000000" stroke="#000000" points="1427.3538,-284.5863 1429.5427,-274.22 1421.367,-280.9588 1427.3538,-284.5863"/>
<text text-anchor="middle" x="1425.3906" y="-300.1705" font-family="Times,serif" font-size="14.00" fill="#000000">e/E</text>
</g>
<!-- S30&#45;&gt;S30 -->
<g id="edge34" class="edge">
<title>S30-&gt;S30</title>
<path fill="none" stroke="#000000" d="M1405.6797,-371.3092C1416.3446,-371.6527 1425.1235,-368.1604 1425.1235,-360.8322 1425.1235,-356.0232 1421.3428,-352.866 1415.7293,-351.3608"/>
<polygon fill="#000000" stroke="#000000" points="1415.9785,-347.8684 1405.6797,-350.3553 1415.2815,-354.8336 1415.9785,-347.8684"/>
<text text-anchor="middle" x="1437.3735" y="-356.6322" font-family="Times,serif" font-size="14.00" fill="#000000">0...9</text>
</g>
<!-- S32&#45;&gt;S32 -->
<g id="edge38" class="edge">
<title>S32-&gt;S32</title>
<path fill="none" stroke="#000000" d="M1519.6797,-153.4622C1530.3446,-153.8057 1539.1235,-150.3134 1539.1235,-142.9852 1539.1235,-138.1762 1535.3428,-135.019 1529.7293,-133.5138"/>
<polygon fill="#000000" stroke="#000000" points="1529.9785,-130.0214 1519.6797,-132.5083 1529.2815,-136.9866 1529.9785,-130.0214"/>
<text text-anchor="middle" x="1551.3735" y="-138.7852" font-family="Times,serif" font-size="14.00" fill="#000000">0...9</text>
</g>
<!-- S34&#45;&gt;S34 -->
<g id="edge41" class="edge">
<title>S34-&gt;S34</title>
<path fill="none" stroke="#000000" d="M1403.6797,-40.5387C1414.3446,-40.8822 1423.1235,-37.3899 1423.1235,-30.0617 1423.1235,-25.2527 1419.3428,-22.0955 1413.7293,-20.5903"/>
<polygon fill="#000000" stroke="#000000" points="1413.9785,-17.0979 1403.6797,-19.5848 1413.2815,-24.0631 1413.9785,-17.0979"/>
<text text-anchor="middle" x="1435.3735" y="-25.8617" font-family="Times,serif" font-size="14.00" fill="#000000">0...9</text>
</g>
<!-- S35 -->
<g id="node36" class="node">
<title>S35</title>
<ellipse fill="none" stroke="#000000" cx="1540.0617" cy="-586.6792" rx="26.1154" ry="26.1154"/>
<ellipse fill="none" stroke="#000000" cx="1540.0617" cy="-586.6792" rx="30.1236" ry="30.1236"/>
<text text-anchor="middle" x="1540.0617" y="-582.4792" font-family="Times,serif" font-size="14.00" fill="#000000">S35</text>
</g>
<!-- S35&#45;&gt;S35 -->
<g id="edge43" class="edge">
<title>S35-&gt;S35</title>
<path fill="none" stroke="#000000" d="M1568.6797,-597.1562C1579.3446,-597.4997 1588.1235,-594.0074 1588.1235,-586.6792 1588.1235,-581.8701 1584.3428,-578.713 1578.7293,-577.2078"/>
<polygon fill="#000000" stroke="#000000" points="1578.9785,-573.7154 1568.6797,-576.2023 1578.2815,-580.6806 1578.9785,-573.7154"/>
<text text-anchor="middle" x="1628.1642" y="-582.4792" font-family="Times,serif" font-size="14.00" fill="#000000">_/a-z/A-Z/0..9</text>
</g>
<!-- S36 -->
<g id="node37" class="node">
<title>S36</title>
<ellipse fill="none" stroke="#000000" cx="1540.0617" cy="-473.7557" rx="26.1154" ry="26.1154"/>
<ellipse fill="none" stroke="#000000" cx="1540.0617" cy="-473.7557" rx="30.1236" ry="30.1236"/>
<text text-anchor="middle" x="1540.0617" y="-469.5557" font-family="Times,serif" font-size="14.00" fill="#000000">S36</text>
</g>
<!-- S35&#45;&gt;S36 -->
<g id="edge44" class="edge">
<title>S35-&gt;S36</title>
<path fill="none" stroke="#000000" d="M1540.0617,-556.4178C1540.0617,-543.5068 1540.0617,-528.2473 1540.0617,-514.3758"/>
<polygon fill="#000000" stroke="#000000" points="1543.5618,-514.1007 1540.0617,-504.1007 1536.5618,-514.1007 1543.5618,-514.1007"/>
<text text-anchor="middle" x="1544.919" y="-526.0175" font-family="Times,serif" font-size="14.00" fill="#000000"> ?</text>
</g>
<!-- start -->
<g id="node40" class="node">
<title>start</title>
<polygon fill="none" stroke="#000000" points="796.0617,-705.541 756.8244,-687.541 796.0617,-669.541 835.2991,-687.541 796.0617,-705.541"/>
<polyline fill="none" stroke="#000000" points="767.7315,-692.5446 767.7315,-682.5374 "/>
<polyline fill="none" stroke="#000000" points="785.1547,-674.5446 806.9688,-674.5446 "/>
<polyline fill="none" stroke="#000000" points="824.392,-682.5374 824.392,-692.5446 "/>
<polyline fill="none" stroke="#000000" points="806.9688,-700.5374 785.1547,-700.5374 "/>
<text text-anchor="middle" x="796.0617" y="-683.341" font-family="Times,serif" font-size="14.00" fill="#000000">start</text>
</g>
<!-- start&#45;&gt;S37 -->
<g id="edge45" class="edge">
<title>start-&gt;S37</title>
<path fill="none" stroke="#000000" d="M759.7102,-686.1947C654.6926,-682.1355 352.167,-669.2005 254.7405,-651.541 196.2286,-640.9351 131.2406,-616.7738 92.8306,-601.1205"/>
<polygon fill="#000000" stroke="#000000" points="93.7728,-597.723 83.1938,-597.1437 91.1025,-604.1937 93.7728,-597.723"/>
<text text-anchor="middle" x="259.7223" y="-638.941" font-family="Times,serif" font-size="14.00" fill="#000000">''</text>
</g>
<!-- start&#45;&gt;S40 -->
<g id="edge50" class="edge">
<title>start-&gt;S40</title>
<path fill="none" stroke="#000000" d="M758.8939,-686.4444C661.3422,-683.2968 399.7593,-673.0476 316.0981,-651.541 276.2337,-641.2931 233.6919,-620.3845 205.672,-605.0661"/>
<polygon fill="#000000" stroke="#000000" points="207.1924,-601.9069 196.7512,-600.1089 203.7923,-608.0256 207.1924,-601.9069"/>
<text text-anchor="middle" x="334.5435" y="-638.941" font-family="Times,serif" font-size="14.00" fill="#000000">'' '' ''</text>
</g>
<!-- start&#45;&gt;S1 -->
<g id="edge1" class="edge">
<title>start-&gt;S1</title>
<path fill="none" stroke="#000000" d="M761.5012,-685.3738C680.7428,-680.1306 481.5608,-666.1148 416.1711,-651.541 371.4218,-641.5674 358.525,-640.0784 319.0617,-616.741 316.368,-615.148 313.6917,-613.3257 311.0923,-611.3835"/>
<polygon fill="#000000" stroke="#000000" points="313.0912,-608.4979 303.1238,-604.9059 308.6757,-613.9296 313.0912,-608.4979"/>
<text text-anchor="middle" x="419.007" y="-638.941" font-family="Times,serif" font-size="14.00" fill="#000000">/</text>
</g>
<!-- start&#45;&gt;S7 -->
<g id="edge10" class="edge">
<title>start-&gt;S7</title>
<path fill="none" stroke="#000000" d="M759.961,-686.1019C701.2679,-683.1588 581.8085,-674.6485 483.4011,-651.541 439.0813,-641.134 426.2184,-639.9641 387.0617,-616.741 384.37,-615.1446 381.6951,-613.3199 379.0966,-611.3762"/>
<polygon fill="#000000" stroke="#000000" points="381.096,-608.4909 371.1296,-604.8961 376.679,-613.9214 381.096,-608.4909"/>
<text text-anchor="middle" x="486.392" y="-638.941" font-family="Times,serif" font-size="14.00" fill="#000000">(</text>
</g>
<!-- start&#45;&gt;S8 -->
<g id="edge11" class="edge">
<title>start-&gt;S8</title>
<path fill="none" stroke="#000000" d="M763.1336,-684.5082C716.5976,-679.7911 629.1483,-669.3388 556.4011,-651.541 510.144,-640.224 496.2125,-640.7079 455.0617,-616.741 452.3575,-615.166 449.6739,-613.356 447.0697,-611.422"/>
<polygon fill="#000000" stroke="#000000" points="449.0662,-608.5349 439.0936,-604.9573 444.6585,-613.973 449.0662,-608.5349"/>
<text text-anchor="middle" x="559.392" y="-638.941" font-family="Times,serif" font-size="14.00" fill="#000000">)</text>
</g>
<!-- start&#45;&gt;S9 -->
<g id="edge12" class="edge">
<title>start-&gt;S9</title>
<path fill="none" stroke="#000000" d="M762.8785,-684.5645C709.2977,-678.5709 601.7846,-661.5515 523.0617,-616.741 520.342,-615.1928 517.6477,-613.4014 515.0365,-611.4796"/>
<polygon fill="#000000" stroke="#000000" points="517.0296,-608.5904 507.0493,-605.0342 512.6336,-614.038 517.0296,-608.5904"/>
<text text-anchor="middle" x="604.421" y="-638.941" font-family="Times,serif" font-size="14.00" fill="#000000">{</text>
</g>
<!-- start&#45;&gt;S10 -->
<g id="edge13" class="edge">
<title>start-&gt;S10</title>
<path fill="none" stroke="#000000" d="M770.6856,-681.0414C732.4245,-670.653 658.3513,-648.2234 601.0617,-616.741 598.5332,-615.3514 595.9934,-613.8058 593.4895,-612.1693"/>
<polygon fill="#000000" stroke="#000000" points="595.3807,-609.2208 585.182,-606.3506 591.3648,-614.9543 595.3807,-609.2208"/>
<text text-anchor="middle" x="677.421" y="-638.941" font-family="Times,serif" font-size="14.00" fill="#000000">}</text>
</g>
<!-- start&#45;&gt;S11 -->
<g id="edge14" class="edge">
<title>start-&gt;S11</title>
<path fill="none" stroke="#000000" d="M778.2308,-677.5866C754.9488,-664.4015 713.1471,-640.0818 679.0617,-616.741 676.6812,-615.1108 674.2504,-613.388 671.8241,-611.6253"/>
<polygon fill="#000000" stroke="#000000" points="673.7825,-608.7198 663.6714,-605.555 669.6021,-614.3344 673.7825,-608.7198"/>
<text text-anchor="middle" x="734.8117" y="-638.941" font-family="Times,serif" font-size="14.00" fill="#000000">,</text>
</g>
<!-- start&#45;&gt;S12 -->
<g id="edge15" class="edge">
<title>start-&gt;S12</title>
<path fill="none" stroke="#000000" d="M785.5423,-673.9383C774.603,-659.7927 757.0902,-637.147 742.647,-618.4705"/>
<polygon fill="#000000" stroke="#000000" points="745.3542,-616.2497 736.4679,-610.4803 739.8168,-620.5319 745.3542,-616.2497"/>
<text text-anchor="middle" x="772.507" y="-638.941" font-family="Times,serif" font-size="14.00" fill="#000000">  :</text>
</g>
<!-- start&#45;&gt;S13 -->
<g id="edge16" class="edge">
<title>start-&gt;S13</title>
<path fill="none" stroke="#000000" d="M796.0617,-669.5089C796.0617,-657.7452 796.0617,-641.9027 796.0617,-627.2234"/>
<polygon fill="#000000" stroke="#000000" points="799.5618,-626.8151 796.0617,-616.8151 792.5618,-626.8152 799.5618,-626.8151"/>
<text text-anchor="middle" x="799.757" y="-638.941" font-family="Times,serif" font-size="14.00" fill="#000000"> ;</text>
</g>
<!-- start&#45;&gt;S14 -->
<g id="edge17" class="edge">
<title>start-&gt;S14</title>
<path fill="none" stroke="#000000" d="M806.5812,-673.9383C817.5205,-659.7927 835.0333,-637.147 849.4765,-618.4705"/>
<polygon fill="#000000" stroke="#000000" points="852.3067,-620.5319 855.6556,-610.4803 846.7693,-616.2497 852.3067,-620.5319"/>
<text text-anchor="middle" x="842.509" y="-638.941" font-family="Times,serif" font-size="14.00" fill="#000000">  +</text>
</g>
<!-- start&#45;&gt;S15 -->
<g id="edge18" class="edge">
<title>start-&gt;S15</title>
<path fill="none" stroke="#000000" d="M813.8927,-677.5866C837.1747,-664.4015 878.9764,-640.0818 913.0617,-616.741 915.4423,-615.1108 917.8731,-613.388 920.2993,-611.6253"/>
<polygon fill="#000000" stroke="#000000" points="922.5214,-614.3344 928.4521,-605.555 918.341,-608.7198 922.5214,-614.3344"/>
<text text-anchor="middle" x="892.0617" y="-638.941" font-family="Times,serif" font-size="14.00" fill="#000000">  *</text>
</g>
<!-- start&#45;&gt;S16 -->
<g id="edge19" class="edge">
<title>start-&gt;S16</title>
<path fill="none" stroke="#000000" d="M821.8708,-681.1627C860.3706,-671.0012 934.38,-648.942 991.0617,-616.741 993.5704,-615.3158 996.0955,-613.7439 998.589,-612.0887"/>
<polygon fill="#000000" stroke="#000000" points="1000.7289,-614.8623 1006.8756,-606.2328 996.6891,-609.1456 1000.7289,-614.8623"/>
<text text-anchor="middle" x="956.892" y="-638.941" font-family="Times,serif" font-size="14.00" fill="#000000">  -</text>
</g>
<!-- start&#45;&gt;S18 -->
<g id="edge21" class="edge">
<title>start-&gt;S18</title>
<path fill="none" stroke="#000000" d="M828.1363,-684.2185C881.0665,-677.6759 988.8232,-659.8222 1069.0617,-616.741 1071.6038,-615.3761 1074.1534,-613.8487 1076.6644,-612.2252"/>
<polygon fill="#000000" stroke="#000000" points="1078.7783,-615.0182 1084.9858,-606.4323 1074.779,-609.2731 1078.7783,-615.0182"/>
<text text-anchor="middle" x="1032.009" y="-638.941" font-family="Times,serif" font-size="14.00" fill="#000000">&lt;</text>
</g>
<!-- start&#45;&gt;S20 -->
<g id="edge23" class="edge">
<title>start-&gt;S20</title>
<path fill="none" stroke="#000000" d="M828.7534,-684.4815C875.8794,-679.6741 965.441,-669.0494 1040.0617,-651.541 1088.7471,-640.1178 1102.8346,-640.0799 1147.0617,-616.741 1149.6135,-615.3944 1152.1702,-613.8804 1154.6864,-612.2665"/>
<polygon fill="#000000" stroke="#000000" points="1156.7923,-615.0654 1163.018,-606.4927 1152.8051,-609.3119 1156.7923,-615.0654"/>
<text text-anchor="middle" x="1111.009" y="-638.941" font-family="Times,serif" font-size="14.00" fill="#000000">&gt;</text>
</g>
<!-- start&#45;&gt;S22 -->
<g id="edge25" class="edge">
<title>start-&gt;S22</title>
<path fill="none" stroke="#000000" d="M832.3022,-685.9397C892.4694,-682.7397 1016.5101,-673.8397 1119.0617,-651.541 1167.5146,-641.0054 1181.2403,-639.9435 1225.0617,-616.741 1227.6116,-615.3909 1230.167,-613.8743 1232.6821,-612.2585"/>
<polygon fill="#000000" stroke="#000000" points="1234.7896,-615.0563 1241.0118,-606.481 1230.8001,-609.3044 1234.7896,-615.0563"/>
<text text-anchor="middle" x="1189.009" y="-638.941" font-family="Times,serif" font-size="14.00" fill="#000000">=</text>
</g>
<!-- start&#45;&gt;S24 -->
<g id="edge27" class="edge">
<title>start-&gt;S24</title>
<path fill="none" stroke="#000000" d="M830.9506,-685.4322C915.0999,-680.1812 1127.4063,-665.9058 1197.0617,-651.541 1245.6248,-641.526 1259.2403,-639.9435 1303.0617,-616.741 1305.6116,-615.3909 1308.167,-613.8743 1310.6821,-612.2585"/>
<polygon fill="#000000" stroke="#000000" points="1312.7896,-615.0563 1319.0118,-606.481 1308.8001,-609.3044 1312.7896,-615.0563"/>
<text text-anchor="middle" x="1267.392" y="-638.941" font-family="Times,serif" font-size="14.00" fill="#000000">!</text>
</g>
<!-- start&#45;&gt;S28 -->
<g id="edge29" class="edge">
<title>start-&gt;S28</title>
<path fill="none" stroke="#000000" d="M831.9096,-685.9539C927.9256,-681.5255 1189.353,-668.2549 1274.0617,-651.541 1323.1233,-641.8606 1336.8346,-640.0799 1381.0617,-616.741 1383.6135,-615.3944 1386.1702,-613.8804 1388.6864,-612.2665"/>
<polygon fill="#000000" stroke="#000000" points="1390.7923,-615.0654 1397.018,-606.4927 1386.8051,-609.3119 1390.7923,-615.0654"/>
<text text-anchor="middle" x="1355.3117" y="-638.941" font-family="Times,serif" font-size="14.00" fill="#000000">0...9</text>
</g>
<!-- start&#45;&gt;S35 -->
<g id="edge42" class="edge">
<title>start-&gt;S35</title>
<path fill="none" stroke="#000000" d="M832.6818,-686.2027C942.2988,-682.0459 1266.6743,-668.6059 1371.0617,-651.541 1430.0903,-641.8912 1447.4437,-643.2475 1501.0617,-616.741 1503.6482,-615.4623 1506.2305,-613.9984 1508.7648,-612.4201"/>
<polygon fill="#000000" stroke="#000000" points="1510.8404,-615.2412 1517.1328,-606.7173 1506.8982,-609.4567 1510.8404,-615.2412"/>
<text text-anchor="middle" x="1486.6571" y="-638.941" font-family="Times,serif" font-size="14.00" fill="#000000">_/a-z/A-Z</text>
</g>
</g>
</svg>