<?xml version="1.0" encoding="UTF-8" standalone="no"?><!DOCTYPE svg PUBLIC "-//W3C//DTD SVG 1.1//EN" "http://www.w3.org/Graphics/SVG/1.1/DTD/svg11.dtd"><!-- Generated by graphviz version 2.40.1 (20161225.0304)
 --><!-- Title: G Pages: 1 --><svg xmlns="http://www.w3.org/2000/svg" xmlns:xlink="http://www.w3.org/1999/xlink" width="1648pt" height="714pt" viewBox="0.00 0.00 1648.32 713.54">
<g id="graph0" class="graph" transform="scale(1 1) rotate(0) translate(4 709.541)">
<title>G</title>
<polygon fill="#ffffff" stroke="transparent" points="-4,4 -4,-709.541 1644.3231,-709.541 1644.3231,4 -4,4"/>
<!-- S2 -->
<g id="node1" class="node">
<title>S2</title>
<ellipse fill="none" stroke="#000000" cx="25.2333" cy="-473.7557" rx="21.4691" ry="21.4691"/>
<text text-anchor="middle" x="25.2333" y="-469.5557" font-family="Times,serif" font-size="14.00" fill="#000000">S2</text>
</g>
<!-- S2&#45;&gt;S2 -->
<g id="edge3" class="edge">
<title>S2-&gt;S2</title>
<path fill="none" stroke="#000000" d="M44.2068,-483.7533C54.754,-485.6195 64.4666,-482.287 64.4666,-473.7557 64.4666,-468.1571 60.2837,-464.7974 54.4271,-463.6766"/>
<polygon fill="#000000" stroke="#000000" points="54.1785,-460.1783 44.2068,-463.7582 54.2345,-467.1781 54.1785,-460.1783"/>
<text text-anchor="middle" x="76.5115" y="-469.5557" font-family="Times,serif" font-size="14.00" fill="#000000">char</text>
</g>
<!-- S3 -->
<g id="node9" class="node">
<title>S3</title>
<ellipse fill="none" stroke="#000000" cx="25.2333" cy="-360.8322" rx="21.4314" ry="21.4314"/>
<ellipse fill="none" stroke="#000000" cx="25.2333" cy="-360.8322" rx="25.4687" ry="25.4687"/>
<text text-anchor="middle" x="25.2333" y="-356.6322" font-family="Times,serif" font-size="14.00" fill="#000000">S3</text>
</g>
<!-- S2&#45;&gt;S3 -->
<g id="edge4" class="edge">
<title>S2-&gt;S3</title>
<path fill="none" stroke="#000000" d="M25.2333,-452.5157C25.2333,-436.7406 25.2333,-414.858 25.2333,-396.4274"/>
<polygon fill="#000000" stroke="#000000" points="28.7334,-396.3263 25.2333,-386.3263 21.7334,-396.3263 28.7334,-396.3263"/>
<text text-anchor="middle" x="42.3392" y="-413.094" font-family="Times,serif" font-size="14.00" fill="#000000">  EOL</text>
</g>
<!-- S4 -->
<g id="node2" class="node">
<title>S4</title>
<ellipse fill="none" stroke="#000000" cx="127.2333" cy="-473.7557" rx="21.4691" ry="21.4691"/>
<text text-anchor="middle" x="127.2333" y="-469.5557" font-family="Times,serif" font-size="14.00" fill="#000000">S4</text>
</g>
<!-- S4&#45;&gt;S4 -->
<g id="edge6" class="edge">
<title>S4-&gt;S4</title>
<path fill="none" stroke="#000000" d="M146.2068,-483.7533C156.754,-485.6195 166.4666,-482.287 166.4666,-473.7557 166.4666,-468.1571 162.2837,-464.7974 156.4271,-463.6766"/>
<polygon fill="#000000" stroke="#000000" points="156.1785,-460.1783 146.2068,-463.7582 156.2345,-467.1781 156.1785,-460.1783"/>
<text text-anchor="middle" x="182.0115" y="-469.5557" font-family="Times,serif" font-size="14.00" fill="#000000">  char</text>
</g>
<!-- S5 -->
<g id="node3" class="node">
<title>S5</title>
<ellipse fill="none" stroke="#000000" cx="127.2333" cy="-360.8322" rx="21.4691" ry="21.4691"/>
<text text-anchor="middle" x="127.2333" y="-356.6322" font-family="Times,serif" font-size="14.00" fill="#000000">S5</text>
</g>
<!-- S4&#45;&gt;S5 -->
<g id="edge7" class="edge">
<title>S4-&gt;S5</title>
<path fill="none" stroke="#000000" d="M118.491,-454.3308C113.7483,-441.5273 109.3051,-424.3342 111.7333,-408.894 112.6931,-402.7908 114.2989,-396.4059 116.1225,-390.3568"/>
<polygon fill="#000000" stroke="#000000" points="119.5308,-391.1954 119.3212,-380.6027 112.8793,-389.0141 119.5308,-391.1954"/>
<text text-anchor="middle" x="117.4833" y="-413.094" font-family="Times,serif" font-size="14.00" fill="#000000"> *</text>
</g>
<!-- S5&#45;&gt;S4 -->
<g id="edge9" class="edge">
<title>S5-&gt;S4</title>
<path fill="none" stroke="#000000" d="M127.2333,-382.361C127.2333,-399.367 127.2333,-423.3377 127.2333,-442.4636"/>
<polygon fill="#000000" stroke="#000000" points="123.7334,-442.5157 127.2333,-452.5157 130.7334,-442.5157 123.7334,-442.5157"/>
<text text-anchor="middle" x="142.7782" y="-413.094" font-family="Times,serif" font-size="14.00" fill="#000000">  char</text>
</g>
<!-- S6 -->
<g id="node10" class="node">
<title>S6</title>
<ellipse fill="none" stroke="#000000" cx="127.2333" cy="-251.9087" rx="21.4314" ry="21.4314"/>
<ellipse fill="none" stroke="#000000" cx="127.2333" cy="-251.9087" rx="25.4687" ry="25.4687"/>
<text text-anchor="middle" x="127.2333" y="-247.7087" font-family="Times,serif" font-size="14.00" fill="#000000">S6</text>
</g>
<!-- S5&#45;&gt;S6 -->
<g id="edge8" class="edge">
<title>S5-&gt;S6</title>
<path fill="none" stroke="#000000" d="M127.2333,-339.5721C127.2333,-324.8062 127.2333,-304.7749 127.2333,-287.5876"/>
<polygon fill="#000000" stroke="#000000" points="130.7334,-287.3261 127.2333,-277.3262 123.7334,-287.3262 130.7334,-287.3261"/>
<text text-anchor="middle" x="193.8439" y="-300.1705" font-family="Times,serif" font-size="14.00" fill="#000000">  / &amp;&amp; nested_mlc == 0</text>
</g>
<!-- S29 -->
<g id="node4" class="node">
<title>S29</title>
<ellipse fill="none" stroke="#000000" cx="1232.2333" cy="-473.7557" rx="26.1236" ry="26.1236"/>
<text text-anchor="middle" x="1232.2333" y="-469.5557" font-family="Times,serif" font-size="14.00" fill="#000000">S29</text>
</g>
<!-- S30 -->
<g id="node31" class="node">
<title>S30</title>
<ellipse fill="none" stroke="#000000" cx="1186.2333" cy="-360.8322" rx="26.1154" ry="26.1154"/>
<ellipse fill="none" stroke="#000000" cx="1186.2333" cy="-360.8322" rx="30.1236" ry="30.1236"/>
<text text-anchor="middle" x="1186.2333" y="-356.6322" font-family="Times,serif" font-size="14.00" fill="#000000">S30</text>
</g>
<!-- S29&#45;&gt;S30 -->
<g id="edge32" class="edge">
<title>S29-&gt;S30</title>
<path fill="none" stroke="#000000" d="M1222.3651,-449.5308C1216.3185,-434.6872 1208.4509,-415.3733 1201.6016,-398.5593"/>
<polygon fill="#000000" stroke="#000000" points="1204.722,-396.9418 1197.708,-389.0011 1198.2392,-399.5826 1204.722,-396.9418"/>
<text text-anchor="middle" x="1224.4833" y="-413.094" font-family="Times,serif" font-size="14.00" fill="#000000">0...9</text>
</g>
<!-- S31 -->
<g id="node5" class="node">
<title>S31</title>
<ellipse fill="none" stroke="#000000" cx="1252.2333" cy="-251.9087" rx="26.1236" ry="26.1236"/>
<text text-anchor="middle" x="1252.2333" y="-247.7087" font-family="Times,serif" font-size="14.00" fill="#000000">S31</text>
</g>
<!-- S33 -->
<g id="node6" class="node">
<title>S33</title>
<ellipse fill="none" stroke="#000000" cx="1184.2333" cy="-142.9852" rx="26.1236" ry="26.1236"/>
<text text-anchor="middle" x="1184.2333" y="-138.7852" font-family="Times,serif" font-size="14.00" fill="#000000">S33</text>
</g>
<!-- S31&#45;&gt;S33 -->
<g id="edge37" class="edge">
<title>S31-&gt;S33</title>
<path fill="none" stroke="#000000" d="M1238.3084,-229.6036C1228.3157,-213.5972 1214.7186,-191.8171 1203.6591,-174.1019"/>
<polygon fill="#000000" stroke="#000000" points="1206.4042,-171.8898 1198.1396,-165.2606 1200.4663,-175.5968 1206.4042,-171.8898"/>
<text text-anchor="middle" x="1231.5109" y="-195.247" font-family="Times,serif" font-size="14.00" fill="#000000">+-</text>
</g>
<!-- S32 -->
<g id="node32" class="node">
<title>S32</title>
<ellipse fill="none" stroke="#000000" cx="1300.2333" cy="-142.9852" rx="26.1154" ry="26.1154"/>
<ellipse fill="none" stroke="#000000" cx="1300.2333" cy="-142.9852" rx="30.1236" ry="30.1236"/>
<text text-anchor="middle" x="1300.2333" y="-138.7852" font-family="Times,serif" font-size="14.00" fill="#000000">S32</text>
</g>
<!-- S31&#45;&gt;S32 -->
<g id="edge36" class="edge">
<title>S31-&gt;S32</title>
<path fill="none" stroke="#000000" d="M1262.7671,-228.005C1268.9376,-214.0027 1276.8639,-196.0159 1283.8358,-180.195"/>
<polygon fill="#000000" stroke="#000000" points="1287.1994,-181.2415 1288.0292,-170.6792 1280.7938,-178.4187 1287.1994,-181.2415"/>
<text text-anchor="middle" x="1290.4833" y="-195.247" font-family="Times,serif" font-size="14.00" fill="#000000">0...9</text>
</g>
<!-- S33&#45;&gt;S33 -->
<g id="edge39" class="edge">
<title>S33-&gt;S33</title>
<path fill="none" stroke="#000000" d="M1208.2542,-153.3212C1219.0007,-154.3056 1228.295,-150.8602 1228.295,-142.9852 1228.295,-137.8173 1224.2923,-134.557 1218.5032,-133.2045"/>
<polygon fill="#000000" stroke="#000000" points="1218.4289,-129.6954 1208.2542,-132.6493 1218.0503,-136.6851 1218.4289,-129.6954"/>
<text text-anchor="middle" x="1240.545" y="-138.7852" font-family="Times,serif" font-size="14.00" fill="#000000">0...9</text>
</g>
<!-- S34 -->
<g id="node33" class="node">
<title>S34</title>
<ellipse fill="none" stroke="#000000" cx="1184.2333" cy="-30.0617" rx="26.1154" ry="26.1154"/>
<ellipse fill="none" stroke="#000000" cx="1184.2333" cy="-30.0617" rx="30.1236" ry="30.1236"/>
<text text-anchor="middle" x="1184.2333" y="-25.8617" font-family="Times,serif" font-size="14.00" fill="#000000">S34</text>
</g>
<!-- S33&#45;&gt;S34 -->
<g id="edge40" class="edge">
<title>S33-&gt;S34</title>
<path fill="none" stroke="#000000" d="M1184.2333,-116.7945C1184.2333,-103.1366 1184.2333,-86.1236 1184.2333,-70.7923"/>
<polygon fill="#000000" stroke="#000000" points="1187.7334,-70.5089 1184.2333,-60.5089 1180.7334,-70.5089 1187.7334,-70.5089"/>
<text text-anchor="middle" x="1196.4833" y="-82.3235" font-family="Times,serif" font-size="14.00" fill="#000000">0...9</text>
</g>
<!-- S37 -->
<g id="node7" class="node">
<title>S37</title>
<ellipse fill="none" stroke="#000000" cx="1344.2333" cy="-360.8322" rx="26.1236" ry="26.1236"/>
<text text-anchor="middle" x="1344.2333" y="-356.6322" font-family="Times,serif" font-size="14.00" fill="#000000">S37</text>
</g>
<!-- S1 -->
<g id="node8" class="node">
<title>S1</title>
<ellipse fill="none" stroke="#000000" cx="101.2333" cy="-586.6792" rx="21.4314" ry="21.4314"/>
<ellipse fill="none" stroke="#000000" cx="101.2333" cy="-586.6792" rx="25.4687" ry="25.4687"/>
<text text-anchor="middle" x="101.2333" y="-582.4792" font-family="Times,serif" font-size="14.00" fill="#000000">S1</text>
</g>
<!-- S1&#45;&gt;S2 -->
<g id="edge2" class="edge">
<title>S1-&gt;S2</title>
<path fill="none" stroke="#000000" d="M87.1164,-565.7038C74.627,-547.1466 56.3491,-519.9887 42.8944,-499.9972"/>
<polygon fill="#000000" stroke="#000000" points="45.7596,-497.9858 37.2724,-491.6439 39.9523,-501.8943 45.7596,-497.9858"/>
<text text-anchor="middle" x="73.6786" y="-526.0175" font-family="Times,serif" font-size="14.00" fill="#000000">  /</text>
</g>
<!-- S1&#45;&gt;S4 -->
<g id="edge5" class="edge">
<title>S1-&gt;S4</title>
<path fill="none" stroke="#000000" d="M106.9391,-561.8977C110.8309,-544.9947 116.0122,-522.4911 120.1654,-504.4532"/>
<polygon fill="#000000" stroke="#000000" points="123.58,-505.2213 122.4131,-494.6909 116.7585,-503.6506 123.58,-505.2213"/>
<text text-anchor="middle" x="123.2333" y="-526.0175" font-family="Times,serif" font-size="14.00" fill="#000000">  *</text>
</g>
<!-- S7 -->
<g id="node11" class="node">
<title>S7</title>
<ellipse fill="none" stroke="#000000" cx="169.2333" cy="-586.6792" rx="21.4314" ry="21.4314"/>
<ellipse fill="none" stroke="#000000" cx="169.2333" cy="-586.6792" rx="25.4687" ry="25.4687"/>
<text text-anchor="middle" x="169.2333" y="-582.4792" font-family="Times,serif" font-size="14.00" fill="#000000">S7</text>
</g>
<!-- S8 -->
<g id="node12" class="node">
<title>S8</title>
<ellipse fill="none" stroke="#000000" cx="237.2333" cy="-586.6792" rx="21.4314" ry="21.4314"/>
<ellipse fill="none" stroke="#000000" cx="237.2333" cy="-586.6792" rx="25.4687" ry="25.4687"/>
<text text-anchor="middle" x="237.2333" y="-582.4792" font-family="Times,serif" font-size="14.00" fill="#000000">S8</text>
</g>
<!-- S9 -->
<g id="node13" class="node">
<title>S9</title>
<ellipse fill="none" stroke="#000000" cx="305.2333" cy="-586.6792" rx="21.4314" ry="21.4314"/>
<ellipse fill="none" stroke="#000000" cx="305.2333" cy="-586.6792" rx="25.4687" ry="25.4687"/>
<text text-anchor="middle" x="305.2333" y="-582.4792" font-family="Times,serif" font-size="14.00" fill="#000000">S9</text>
</g>
<!-- S10 -->
<g id="node14" class="node">
<title>S10</title>
<ellipse fill="none" stroke="#000000" cx="378.2333" cy="-586.6792" rx="26.1154" ry="26.1154"/>
<ellipse fill="none" stroke="#000000" cx="378.2333" cy="-586.6792" rx="30.1236" ry="30.1236"/>
<text text-anchor="middle" x="378.2333" y="-582.4792" font-family="Times,serif" font-size="14.00" fill="#000000">S10</text>
</g>
<!-- S11 -->
<g id="node15" class="node">
<title>S11</title>
<ellipse fill="none" stroke="#000000" cx="456.2333" cy="-586.6792" rx="26.1154" ry="26.1154"/>
<ellipse fill="none" stroke="#000000" cx="456.2333" cy="-586.6792" rx="30.1236" ry="30.1236"/>
<text text-anchor="middle" x="456.2333" y="-582.4792" font-family="Times,serif" font-size="14.00" fill="#000000">S11</text>
</g>
<!-- S12 -->
<g id="node16" class="node">
<title>S12</title>
<ellipse fill="none" stroke="#000000" cx="534.2333" cy="-586.6792" rx="26.1154" ry="26.1154"/>
<ellipse fill="none" stroke="#000000" cx="534.2333" cy="-586.6792" rx="30.1236" ry="30.1236"/>
<text text-anchor="middle" x="534.2333" y="-582.4792" font-family="Times,serif" font-size="14.00" fill="#000000">S12</text>
</g>
<!-- S13 -->
<g id="node17" class="node">
<title>S13</title>
<ellipse fill="none" stroke="#000000" cx="612.2333" cy="-586.6792" rx="26.1154" ry="26.1154"/>
<ellipse fill="none" stroke="#000000" cx="612.2333" cy="-586.6792" rx="30.1236" ry="30.1236"/>
<text text-anchor="middle" x="612.2333" y="-582.4792" font-family="Times,serif" font-size="14.00" fill="#000000">S13</text>
</g>
<!-- S14 -->
<g id="node18" class="node">
<title>S14</title>
<ellipse fill="none" stroke="#000000" cx="690.2333" cy="-586.6792" rx="26.1154" ry="26.1154"/>
<ellipse fill="none" stroke="#000000" cx="690.2333" cy="-586.6792" rx="30.1236" ry="30.1236"/>
<text text-anchor="middle" x="690.2333" y="-582.4792" font-family="Times,serif" font-size="14.00" fill="#000000">S14</text>
</g>
<!-- S15 -->
<g id="node19" class="node">
<title>S15</title>
<ellipse fill="none" stroke="#000000" cx="768.2333" cy="-586.6792" rx="26.1154" ry="26.1154"/>
<ellipse fill="none" stroke="#000000" cx="768.2333" cy="-586.6792" rx="30.1236" ry="30.1236"/>
<text text-anchor="middle" x="768.2333" y="-582.4792" font-family="Times,serif" font-size="14.00" fill="#000000">S15</text>
</g>
<!-- S16 -->
<g id="node20" class="node">
<title>S16</title>
<ellipse fill="none" stroke="#000000" cx="846.2333" cy="-586.6792" rx="26.1154" ry="26.1154"/>
<ellipse fill="none" stroke="#000000" cx="846.2333" cy="-586.6792" rx="30.1236" ry="30.1236"/>
<text text-anchor="middle" x="846.2333" y="-582.4792" font-family="Times,serif" font-size="14.00" fill="#000000">S16</text>
</g>
<!-- S17 -->
<g id="node21" class="node">
<title>S17</title>
<ellipse fill="none" stroke="#000000" cx="846.2333" cy="-473.7557" rx="26.1154" ry="26.1154"/>
<ellipse fill="none" stroke="#000000" cx="846.2333" cy="-473.7557" rx="30.1236" ry="30.1236"/>
<text text-anchor="middle" x="846.2333" y="-469.5557" font-family="Times,serif" font-size="14.00" fill="#000000">S17</text>
</g>
<!-- S16&#45;&gt;S17 -->
<g id="edge20" class="edge">
<title>S16-&gt;S17</title>
<path fill="none" stroke="#000000" d="M846.2333,-556.4178C846.2333,-543.5068 846.2333,-528.2473 846.2333,-514.3758"/>
<polygon fill="#000000" stroke="#000000" points="849.7334,-514.1007 846.2333,-504.1007 842.7334,-514.1007 849.7334,-514.1007"/>
<text text-anchor="middle" x="853.6806" y="-526.0175" font-family="Times,serif" font-size="14.00" fill="#000000">  &gt;</text>
</g>
<!-- S18 -->
<g id="node22" class="node">
<title>S18</title>
<ellipse fill="none" stroke="#000000" cx="924.2333" cy="-586.6792" rx="26.1154" ry="26.1154"/>
<ellipse fill="none" stroke="#000000" cx="924.2333" cy="-586.6792" rx="30.1236" ry="30.1236"/>
<text text-anchor="middle" x="924.2333" y="-582.4792" font-family="Times,serif" font-size="14.00" fill="#000000">S18</text>
</g>
<!-- S19 -->
<g id="node23" class="node">
<title>S19</title>
<ellipse fill="none" stroke="#000000" cx="924.2333" cy="-473.7557" rx="26.1154" ry="26.1154"/>
<ellipse fill="none" stroke="#000000" cx="924.2333" cy="-473.7557" rx="30.1236" ry="30.1236"/>
<text text-anchor="middle" x="924.2333" y="-469.5557" font-family="Times,serif" font-size="14.00" fill="#000000">S19</text>
</g>
<!-- S18&#45;&gt;S19 -->
<g id="edge22" class="edge">
<title>S18-&gt;S19</title>
<path fill="none" stroke="#000000" d="M924.2333,-556.4178C924.2333,-543.5068 924.2333,-528.2473 924.2333,-514.3758"/>
<polygon fill="#000000" stroke="#000000" points="927.7334,-514.1007 924.2333,-504.1007 920.7334,-514.1007 927.7334,-514.1007"/>
<text text-anchor="middle" x="928.1806" y="-526.0175" font-family="Times,serif" font-size="14.00" fill="#000000">=</text>
</g>
<!-- S20 -->
<g id="node24" class="node">
<title>S20</title>
<ellipse fill="none" stroke="#000000" cx="1002.2333" cy="-586.6792" rx="26.1154" ry="26.1154"/>
<ellipse fill="none" stroke="#000000" cx="1002.2333" cy="-586.6792" rx="30.1236" ry="30.1236"/>
<text text-anchor="middle" x="1002.2333" y="-582.4792" font-family="Times,serif" font-size="14.00" fill="#000000">S20</text>
</g>
<!-- S21 -->
<g id="node25" class="node">
<title>S21</title>
<ellipse fill="none" stroke="#000000" cx="1002.2333" cy="-473.7557" rx="26.1154" ry="26.1154"/>
<ellipse fill="none" stroke="#000000" cx="1002.2333" cy="-473.7557" rx="30.1236" ry="30.1236"/>
<text text-anchor="middle" x="1002.2333" y="-469.5557" font-family="Times,serif" font-size="14.00" fill="#000000">S21</text>
</g>
<!-- S20&#45;&gt;S21 -->
<g id="edge24" class="edge">
<title>S20-&gt;S21</title>
<path fill="none" stroke="#000000" d="M1002.2333,-556.4178C1002.2333,-543.5068 1002.2333,-528.2473 1002.2333,-514.3758"/>
<polygon fill="#000000" stroke="#000000" points="1005.7334,-514.1007 1002.2333,-504.1007 998.7334,-514.1007 1005.7334,-514.1007"/>
<text text-anchor="middle" x="1006.1806" y="-526.0175" font-family="Times,serif" font-size="14.00" fill="#000000">=</text>
</g>
<!-- S22 -->
<g id="node26" class="node">
<title>S22</title>
<ellipse fill="none" stroke="#000000" cx="1080.2333" cy="-586.6792" rx="26.1154" ry="26.1154"/>
<ellipse fill="none" stroke="#000000" cx="1080.2333" cy="-586.6792" rx="30.1236" ry="30.1236"/>
<text text-anchor="middle" x="1080.2333" y="-582.4792" font-family="Times,serif" font-size="14.00" fill="#000000">S22</text>
</g>
<!-- S23 -->
<g id="node27" class="node">
<title>S23</title>
<ellipse fill="none" stroke="#000000" cx="1080.2333" cy="-473.7557" rx="26.1154" ry="26.1154"/>
<ellipse fill="none" stroke="#000000" cx="1080.2333" cy="-473.7557" rx="30.1236" ry="30.1236"/>
<text text-anchor="middle" x="1080.2333" y="-469.5557" font-family="Times,serif" font-size="14.00" fill="#000000">S23</text>
</g>
<!-- S22&#45;&gt;S23 -->
<g id="edge26" class="edge">
<title>S22-&gt;S23</title>
<path fill="none" stroke="#000000" d="M1080.2333,-556.4178C1080.2333,-543.5068 1080.2333,-528.2473 1080.2333,-514.3758"/>
<polygon fill="#000000" stroke="#000000" points="1083.7334,-514.1007 1080.2333,-504.1007 1076.7334,-514.1007 1083.7334,-514.1007"/>
<text text-anchor="middle" x="1084.1806" y="-526.0175" font-family="Times,serif" font-size="14.00" fill="#000000">=</text>
</g>
<!-- S24 -->
<g id="node28" class="node">
<title>S24</title>
<ellipse fill="none" stroke="#000000" cx="1158.2333" cy="-586.6792" rx="26.1154" ry="26.1154"/>
<ellipse fill="none" stroke="#000000" cx="1158.2333" cy="-586.6792" rx="30.1236" ry="30.1236"/>
<text text-anchor="middle" x="1158.2333" y="-582.4792" font-family="Times,serif" font-size="14.00" fill="#000000">S24</text>
</g>
<!-- S25 -->
<g id="node29" class="node">
<title>S25</title>
<ellipse fill="none" stroke="#000000" cx="1158.2333" cy="-473.7557" rx="26.1154" ry="26.1154"/>
<ellipse fill="none" stroke="#000000" cx="1158.2333" cy="-473.7557" rx="30.1236" ry="30.1236"/>
<text text-anchor="middle" x="1158.2333" y="-469.5557" font-family="Times,serif" font-size="14.00" fill="#000000">S25</text>
</g>
<!-- S24&#45;&gt;S25 -->
<g id="edge28" class="edge">
<title>S24-&gt;S25</title>
<path fill="none" stroke="#000000" d="M1158.2333,-556.4178C1158.2333,-543.5068 1158.2333,-528.2473 1158.2333,-514.3758"/>
<polygon fill="#000000" stroke="#000000" points="1161.7334,-514.1007 1158.2333,-504.1007 1154.7334,-514.1007 1161.7334,-514.1007"/>
<text text-anchor="middle" x="1162.1806" y="-526.0175" font-family="Times,serif" font-size="14.00" fill="#000000">=</text>
</g>
<!-- S28 -->
<g id="node30" class="node">
<title>S28</title>
<ellipse fill="none" stroke="#000000" cx="1236.2333" cy="-586.6792" rx="26.1154" ry="26.1154"/>
<ellipse fill="none" stroke="#000000" cx="1236.2333" cy="-586.6792" rx="30.1236" ry="30.1236"/>
<text text-anchor="middle" x="1236.2333" y="-582.4792" font-family="Times,serif" font-size="14.00" fill="#000000">S28</text>
</g>
<!-- S28&#45;&gt;S29 -->
<g id="edge31" class="edge">
<title>S28-&gt;S29</title>
<path fill="none" stroke="#000000" d="M1235.1613,-556.4178C1234.6586,-542.2237 1234.0552,-525.1911 1233.5272,-510.2849"/>
<polygon fill="#000000" stroke="#000000" points="1237.0105,-509.7475 1233.1586,-499.8777 1230.0149,-509.9953 1237.0105,-509.7475"/>
<text text-anchor="middle" x="1238.7333" y="-526.0175" font-family="Times,serif" font-size="14.00" fill="#000000"> .</text>
</g>
<!-- S28&#45;&gt;S31 -->
<g id="edge33" class="edge">
<title>S28-&gt;S31</title>
<path fill="none" stroke="#000000" d="M1249.2693,-559.3848C1256.1037,-543.5554 1263.7603,-523.0124 1267.2333,-503.8175 1280.9266,-428.1365 1274.4507,-407.3409 1267.2333,-330.7705 1265.8784,-316.3966 1263.1638,-300.7421 1260.4118,-287.1972"/>
<polygon fill="#000000" stroke="#000000" points="1263.8137,-286.367 1258.3219,-277.3066 1256.9649,-287.8142 1263.8137,-286.367"/>
<text text-anchor="middle" x="1285.5622" y="-413.094" font-family="Times,serif" font-size="14.00" fill="#000000">e/E</text>
</g>
<!-- S28&#45;&gt;S28 -->
<g id="edge30" class="edge">
<title>S28-&gt;S28</title>
<path fill="none" stroke="#000000" d="M1264.8512,-597.1562C1275.5162,-597.4997 1284.295,-594.0074 1284.295,-586.6792 1284.295,-581.8701 1280.5143,-578.713 1274.9009,-577.2078"/>
<polygon fill="#000000" stroke="#000000" points="1275.15,-573.7154 1264.8512,-576.2023 1274.4531,-580.6806 1275.15,-573.7154"/>
<text text-anchor="middle" x="1296.545" y="-582.4792" font-family="Times,serif" font-size="14.00" fill="#000000">0...9</text>
</g>
<!-- S30&#45;&gt;S31 -->
<g id="edge35" class="edge">
<title>S30-&gt;S31</title>
<path fill="none" stroke="#000000" d="M1201.8744,-335.0189C1211.3303,-319.4132 1223.4446,-299.4202 1233.4217,-282.9545"/>
<polygon fill="#000000" stroke="#000000" points="1236.5253,-284.5863 1238.7142,-274.22 1230.5386,-280.9588 1236.5253,-284.5863"/>
<text text-anchor="middle" x="1234.5622" y="-300.1705" font-family="Times,serif" font-size="14.00" fill="#000000">e/E</text>
</g>
<!-- S30&#45;&gt;S30 -->
<g id="edge34" class="edge">
<title>S30-&gt;S30</title>
<path fill="none" stroke="#000000" d="M1214.8512,-371.3092C1225.5162,-371.6527 1234.295,-368.1604 1234.295,-360.8322 1234.295,-356.0232 1230.5143,-352.866 1224.9009,-351.3608"/>
<polygon fill="#000000" stroke="#000000" points="1225.15,-347.8684 1214.8512,-350.3553 1224.4531,-354.8336 1225.15,-347.8684"/>
<text text-anchor="middle" x="1246.545" y="-356.6322" font-family="Times,serif" font-size="14.00" fill="#000000">0...9</text>
</g>
<!-- S32&#45;&gt;S32 -->
<g id="edge38" class="edge">
<title>S32-&gt;S32</title>
<path fill="none" stroke="#000000" d="M1328.8512,-153.4622C1339.5162,-153.8057 1348.295,-150.3134 1348.295,-142.9852 1348.295,-138.1762 1344.5143,-135.019 1338.9009,-133.5138"/>
<polygon fill="#000000" stroke="#000000" points="1339.15,-130.0214 1328.8512,-132.5083 1338.4531,-136.9866 1339.15,-130.0214"/>
<text text-anchor="middle" x="1360.545" y="-138.7852" font-family="Times,serif" font-size="14.00" fill="#000000">0...9</text>
</g>
<!-- S34&#45;&gt;S34 -->
<g id="edge41" class="edge">
<title>S34-&gt;S34</title>
<path fill="none" stroke="#000000" d="M1212.8512,-40.5387C1223.5162,-40.8822 1232.295,-37.3899 1232.295,-30.0617 1232.295,-25.2527 1228.5143,-22.0955 1222.9009,-20.5903"/>
<polygon fill="#000000" stroke="#000000" points="1223.15,-17.0979 1212.8512,-19.5848 1222.4531,-24.0631 1223.15,-17.0979"/>
<text text-anchor="middle" x="1244.545" y="-25.8617" font-family="Times,serif" font-size="14.00" fill="#000000">0...9</text>
</g>
<!-- S35 -->
<g id="node34" class="node">
<title>S35</title>
<ellipse fill="none" stroke="#000000" cx="1356.2333" cy="-586.6792" rx="26.1154" ry="26.1154"/>
<ellipse fill="none" stroke="#000000" cx="1356.2333" cy="-586.6792" rx="30.1236" ry="30.1236"/>
<text text-anchor="middle" x="1356.2333" y="-582.4792" font-family="Times,serif" font-size="14.00" fill="#000000">S35</text>
</g>
<!-- S36 -->
<g id="node35" class="node">
<title>S36</title>
<ellipse fill="none" stroke="#000000" cx="1344.2333" cy="-473.7557" rx="26.1154" ry="26.1154"/>
<ellipse fill="none" stroke="#000000" cx="1344.2333" cy="-473.7557" rx="30.1236" ry="30.1236"/>
<text text-anchor="middle" x="1344.2333" y="-469.5557" font-family="Times,serif" font-size="14.00" fill="#000000">S36</text>
</g>
<!-- S35&#45;&gt;S36 -->
<g id="edge43" class="edge">
<title>S35-&gt;S36</title>
<path fill="none" stroke="#000000" d="M1345.1566,-558.5991C1343.0808,-552.1348 1341.2268,-545.2176 1340.1519,-538.6175 1338.8511,-530.6307 1338.5995,-522.0283 1338.9113,-513.782"/>
<polygon fill="#000000" stroke="#000000" points="1342.417,-513.8057 1339.571,-503.6003 1335.4317,-513.3531 1342.417,-513.8057"/>
<text text-anchor="middle" x="1380.274" y="-526.0175" font-family="Times,serif" font-size="14.00" fill="#000000">_/a-z/A-Z/0..9</text>
</g>
<!-- S36&#45;&gt;S37 -->
<g id="edge44" class="edge">
<title>S36-&gt;S37</title>
<path fill="none" stroke="#000000" d="M1344.2333,-443.4943C1344.2333,-429.3002 1344.2333,-412.2676 1344.2333,-397.3614"/>
<polygon fill="#000000" stroke="#000000" points="1347.7334,-396.9541 1344.2333,-386.9542 1340.7334,-396.9542 1347.7334,-396.9541"/>
<text text-anchor="middle" x="1349.0906" y="-413.094" font-family="Times,serif" font-size="14.00" fill="#000000"> ?</text>
</g>
<!-- S39 -->
<g id="node36" class="node">
<title>S39</title>
<ellipse fill="none" stroke="#000000" cx="1426.2333" cy="-473.7557" rx="26.1154" ry="26.1154"/>
<ellipse fill="none" stroke="#000000" cx="1426.2333" cy="-473.7557" rx="30.1236" ry="30.1236"/>
<text text-anchor="middle" x="1426.2333" y="-469.5557" font-family="Times,serif" font-size="14.00" fill="#000000">S39</text>
</g>
<!-- S42 -->
<g id="node37" class="node">
<title>S42</title>
<ellipse fill="none" stroke="#000000" cx="1576.2333" cy="-473.7557" rx="26.1154" ry="26.1154"/>
<ellipse fill="none" stroke="#000000" cx="1576.2333" cy="-473.7557" rx="30.1236" ry="30.1236"/>
<text text-anchor="middle" x="1576.2333" y="-469.5557" font-family="Times,serif" font-size="14.00" fill="#000000">S42</text>
</g>
<!-- start -->
<g id="node38" class="node">
<title>start</title>
<polygon fill="none" stroke="#000000" points="768.2333,-705.541 728.996,-687.541 768.2333,-669.541 807.4706,-687.541 768.2333,-705.541"/>
<polyline fill="none" stroke="#000000" points="739.903,-692.5446 739.903,-682.5374 "/>
<polyline fill="none" stroke="#000000" points="757.3262,-674.5446 779.1403,-674.5446 "/>
<polyline fill="none" stroke="#000000" points="796.5635,-682.5374 796.5635,-692.5446 "/>
<polyline fill="none" stroke="#000000" points="779.1403,-700.5374 757.3262,-700.5374 "/>
<text text-anchor="middle" x="768.2333" y="-683.341" font-family="Times,serif" font-size="14.00" fill="#000000">start</text>
</g>
<!-- start&#45;&gt;S1 -->
<g id="edge1" class="edge">
<title>start-&gt;S1</title>
<path fill="none" stroke="#000000" d="M731.31,-686.4327C626.1308,-683.0597 326.3662,-671.8869 230.3427,-651.541 186.3087,-642.2109 173.9006,-639.7819 135.2333,-616.741 132.5449,-615.139 129.8722,-613.3105 127.2752,-611.3643"/>
<polygon fill="#000000" stroke="#000000" points="129.2753,-608.4794 119.3106,-604.8802 124.8559,-613.908 129.2753,-608.4794"/>
<text text-anchor="middle" x="233.1786" y="-638.941" font-family="Times,serif" font-size="14.00" fill="#000000">/</text>
</g>
<!-- start&#45;&gt;S7 -->
<g id="edge10" class="edge">
<title>start-&gt;S7</title>
<path fill="none" stroke="#000000" d="M731.9474,-686.0429C636.6971,-681.9056 381.1953,-669.4317 298.5727,-651.541 254.4868,-641.9948 241.992,-639.8159 203.2333,-616.741 200.5442,-615.1401 197.8712,-613.3123 195.2739,-611.3665"/>
<polygon fill="#000000" stroke="#000000" points="197.2739,-608.4816 187.3088,-604.8832 192.8549,-613.9105 197.2739,-608.4816"/>
<text text-anchor="middle" x="301.5636" y="-638.941" font-family="Times,serif" font-size="14.00" fill="#000000">(</text>
</g>
<!-- start&#45;&gt;S8 -->
<g id="edge11" class="edge">
<title>start-&gt;S8</title>
<path fill="none" stroke="#000000" d="M733.1267,-685.5234C648.9934,-680.5037 437.717,-666.7558 368.5727,-651.541 323.7025,-641.6676 310.7881,-640.1125 271.2333,-616.741 268.5389,-615.149 265.8622,-613.3274 263.2625,-611.3857"/>
<polygon fill="#000000" stroke="#000000" points="265.2613,-608.5 255.2936,-604.9088 260.8462,-613.9321 265.2613,-608.5"/>
<text text-anchor="middle" x="371.5636" y="-638.941" font-family="Times,serif" font-size="14.00" fill="#000000">)</text>
</g>
<!-- start&#45;&gt;S9 -->
<g id="edge12" class="edge">
<title>start-&gt;S9</title>
<path fill="none" stroke="#000000" d="M732.383,-685.8007C672.8587,-682.4009 550.1226,-673.2201 448.5147,-651.541 398.664,-640.9048 383.5657,-641.8976 339.2333,-616.741 336.5115,-615.1965 333.8158,-613.4076 331.2036,-611.4873"/>
<polygon fill="#000000" stroke="#000000" points="333.1962,-608.5979 323.215,-605.0446 328.8018,-614.0467 333.1962,-608.5979"/>
<text text-anchor="middle" x="452.5926" y="-638.941" font-family="Times,serif" font-size="14.00" fill="#000000">{</text>
</g>
<!-- start&#45;&gt;S10 -->
<g id="edge13" class="edge">
<title>start-&gt;S10</title>
<path fill="none" stroke="#000000" d="M735.8625,-684.3899C689.1957,-679.4711 600.494,-668.7121 526.5147,-651.541 476.8619,-640.0162 462.387,-640.3916 417.2333,-616.741 414.6774,-615.4023 412.1176,-613.894 409.5993,-612.2843"/>
<polygon fill="#000000" stroke="#000000" points="411.4788,-609.3286 401.2634,-606.5187 407.4968,-615.0857 411.4788,-609.3286"/>
<text text-anchor="middle" x="530.5926" y="-638.941" font-family="Times,serif" font-size="14.00" fill="#000000">}</text>
</g>
<!-- start&#45;&gt;S11 -->
<g id="edge14" class="edge">
<title>start-&gt;S11</title>
<path fill="none" stroke="#000000" d="M736.2841,-683.9813C683.5342,-677.0976 576.0307,-658.7648 495.2333,-616.741 492.6736,-615.4096 490.1109,-613.9068 487.5906,-612.3009"/>
<polygon fill="#000000" stroke="#000000" points="489.4685,-609.3443 479.2506,-606.543 485.4914,-615.1048 489.4685,-609.3443"/>
<text text-anchor="middle" x="582.9833" y="-638.941" font-family="Times,serif" font-size="14.00" fill="#000000">,</text>
</g>
<!-- start&#45;&gt;S12 -->
<g id="edge15" class="edge">
<title>start-&gt;S12</title>
<path fill="none" stroke="#000000" d="M742.805,-681.1356C704.4767,-670.8686 630.3177,-648.5938 573.2333,-616.741 570.7137,-615.3351 568.1807,-613.7774 565.6815,-612.1324"/>
<polygon fill="#000000" stroke="#000000" points="567.5766,-609.1863 557.3835,-606.2965 563.5498,-614.9121 567.5766,-609.1863"/>
<text text-anchor="middle" x="651.6786" y="-638.941" font-family="Times,serif" font-size="14.00" fill="#000000">  :</text>
</g>
<!-- start&#45;&gt;S13 -->
<g id="edge16" class="edge">
<title>start-&gt;S13</title>
<path fill="none" stroke="#000000" d="M750.4023,-677.5866C727.1203,-664.4015 685.3186,-640.0818 651.2333,-616.741 648.8527,-615.1108 646.422,-613.388 643.9957,-611.6253"/>
<polygon fill="#000000" stroke="#000000" points="645.954,-608.7198 635.8429,-605.555 641.7736,-614.3344 645.954,-608.7198"/>
<text text-anchor="middle" x="708.9286" y="-638.941" font-family="Times,serif" font-size="14.00" fill="#000000"> ;</text>
</g>
<!-- start&#45;&gt;S14 -->
<g id="edge17" class="edge">
<title>start-&gt;S14</title>
<path fill="none" stroke="#000000" d="M757.7138,-673.9383C746.7745,-659.7927 729.2618,-637.147 714.8186,-618.4705"/>
<polygon fill="#000000" stroke="#000000" points="717.5257,-616.2497 708.6395,-610.4803 711.9883,-620.5319 717.5257,-616.2497"/>
<text text-anchor="middle" x="746.6806" y="-638.941" font-family="Times,serif" font-size="14.00" fill="#000000">  +</text>
</g>
<!-- start&#45;&gt;S15 -->
<g id="edge18" class="edge">
<title>start-&gt;S15</title>
<path fill="none" stroke="#000000" d="M768.2333,-669.5089C768.2333,-657.7452 768.2333,-641.9027 768.2333,-627.2234"/>
<polygon fill="#000000" stroke="#000000" points="771.7334,-626.8151 768.2333,-616.8151 764.7334,-626.8152 771.7334,-626.8151"/>
<text text-anchor="middle" x="775.2333" y="-638.941" font-family="Times,serif" font-size="14.00" fill="#000000">  *</text>
</g>
<!-- start&#45;&gt;S16 -->
<g id="edge19" class="edge">
<title>start-&gt;S16</title>
<path fill="none" stroke="#000000" d="M778.7527,-673.9383C789.692,-659.7927 807.2048,-637.147 821.648,-618.4705"/>
<polygon fill="#000000" stroke="#000000" points="824.4782,-620.5319 827.8271,-610.4803 818.9409,-616.2497 824.4782,-620.5319"/>
<text text-anchor="middle" x="813.0636" y="-638.941" font-family="Times,serif" font-size="14.00" fill="#000000">  -</text>
</g>
<!-- start&#45;&gt;S18 -->
<g id="edge21" class="edge">
<title>start-&gt;S18</title>
<path fill="none" stroke="#000000" d="M786.0642,-677.5866C809.3463,-664.4015 851.1479,-640.0818 885.2333,-616.741 887.6139,-615.1108 890.0446,-613.388 892.4709,-611.6253"/>
<polygon fill="#000000" stroke="#000000" points="894.6929,-614.3344 900.6236,-605.555 890.5125,-608.7198 894.6929,-614.3344"/>
<text text-anchor="middle" x="861.1806" y="-638.941" font-family="Times,serif" font-size="14.00" fill="#000000">&lt;</text>
</g>
<!-- start&#45;&gt;S20 -->
<g id="edge23" class="edge">
<title>start-&gt;S20</title>
<path fill="none" stroke="#000000" d="M793.6346,-681.0872C831.9283,-670.7577 906.043,-648.4034 963.2333,-616.741 965.7575,-615.3435 968.294,-613.792 970.7956,-612.1514"/>
<polygon fill="#000000" stroke="#000000" points="972.9238,-614.9338 979.0985,-606.3243 968.9025,-609.2041 972.9238,-614.9338"/>
<text text-anchor="middle" x="927.1806" y="-638.941" font-family="Times,serif" font-size="14.00" fill="#000000">&gt;</text>
</g>
<!-- start&#45;&gt;S22 -->
<g id="edge25" class="edge">
<title>start-&gt;S22</title>
<path fill="none" stroke="#000000" d="M800.2522,-684.1141C853.1024,-677.4215 960.7467,-659.357 1041.2333,-616.741 1043.7831,-615.3909 1046.3385,-613.8743 1048.8537,-612.2585"/>
<polygon fill="#000000" stroke="#000000" points="1050.9612,-615.0563 1057.1834,-606.481 1046.9716,-609.3044 1050.9612,-615.0563"/>
<text text-anchor="middle" x="1004.1806" y="-638.941" font-family="Times,serif" font-size="14.00" fill="#000000">=</text>
</g>
<!-- start&#45;&gt;S24 -->
<g id="edge27" class="edge">
<title>start-&gt;S24</title>
<path fill="none" stroke="#000000" d="M800.925,-684.4815C848.051,-679.6741 937.6125,-669.0494 1012.2333,-651.541 1060.9186,-640.1178 1075.0061,-640.0799 1119.2333,-616.741 1121.785,-615.3944 1124.3418,-613.8804 1126.8579,-612.2665"/>
<polygon fill="#000000" stroke="#000000" points="1128.9638,-615.0654 1135.1895,-606.4927 1124.9767,-609.3119 1128.9638,-615.0654"/>
<text text-anchor="middle" x="1081.5636" y="-638.941" font-family="Times,serif" font-size="14.00" fill="#000000">!</text>
</g>
<!-- start&#45;&gt;S28 -->
<g id="edge29" class="edge">
<title>start-&gt;S28</title>
<path fill="none" stroke="#000000" d="M804.1169,-685.8124C863.6962,-682.4292 986.5441,-673.2719 1088.2333,-651.541 1137.9639,-640.9135 1152.1939,-640.3531 1197.2333,-616.741 1199.7886,-615.4013 1202.3481,-613.8924 1204.8661,-612.2821"/>
<polygon fill="#000000" stroke="#000000" points="1206.969,-615.0833 1213.2015,-606.5155 1202.9864,-609.3266 1206.969,-615.0833"/>
<text text-anchor="middle" x="1170.4833" y="-638.941" font-family="Times,serif" font-size="14.00" fill="#000000">0...9</text>
</g>
<!-- start&#45;&gt;S35 -->
<g id="edge42" class="edge">
<title>start-&gt;S35</title>
<path fill="none" stroke="#000000" d="M805.416,-686.5039C878.7584,-683.9824 1047.0314,-675.8348 1186.2333,-651.541 1245.5778,-641.184 1263.2048,-643.3863 1317.2333,-616.741 1319.8209,-615.4648 1322.4042,-614.0026 1324.9391,-612.4257"/>
<polygon fill="#000000" stroke="#000000" points="1327.0135,-615.2476 1333.3083,-606.7255 1323.073,-609.462 1327.0135,-615.2476"/>
<text text-anchor="middle" x="1277.7333" y="-638.941" font-family="Times,serif" font-size="14.00" fill="#000000">_</text>
</g>
<!-- S38 -->
<g id="node39" class="node">
<title>S38</title>
<ellipse fill="none" stroke="#000000" cx="1452.2333" cy="-586.6792" rx="27" ry="18"/>
<text text-anchor="middle" x="1452.2333" y="-582.4792" font-family="Times,serif" font-size="14.00" fill="#000000">S38</text>
</g>
<!-- start&#45;&gt;S38 -->
<g id="edge45" class="edge">
<title>start-&gt;S38</title>
<path fill="none" stroke="#000000" d="M804.7734,-686.1228C906.7268,-681.9867 1192.8661,-669.1097 1285.2333,-651.541 1335.6073,-641.9596 1347.9217,-636.5137 1395.2333,-616.741 1404.4058,-612.9075 1414.0782,-608.1134 1422.7983,-603.4873"/>
<polygon fill="#000000" stroke="#000000" points="1424.702,-606.4363 1431.818,-598.587 1421.3602,-600.2855 1424.702,-606.4363"/>
<text text-anchor="middle" x="1355.8939" y="-638.941" font-family="Times,serif" font-size="14.00" fill="#000000">''</text>
</g>
<!-- S41 -->
<g id="node41" class="node">
<title>S41</title>
<ellipse fill="none" stroke="#000000" cx="1571.2333" cy="-586.6792" rx="27" ry="18"/>
<text text-anchor="middle" x="1571.2333" y="-582.4792" font-family="Times,serif" font-size="14.00" fill="#000000">S41</text>
</g>
<!-- start&#45;&gt;S41 -->
<g id="edge50" class="edge">
<title>start-&gt;S41</title>
<path fill="none" stroke="#000000" d="M806.7713,-687.1622C901.8678,-685.8048 1155.1602,-679.6166 1364.2333,-651.541 1438.9442,-641.5083 1461.3927,-647.4551 1530.2333,-616.741 1535.8101,-614.2528 1541.3673,-610.9137 1546.5081,-607.3655"/>
<polygon fill="#000000" stroke="#000000" points="1548.7374,-610.07 1554.6964,-601.3099 1544.5751,-604.4419 1548.7374,-610.07"/>
<text text-anchor="middle" x="1498.7151" y="-638.941" font-family="Times,serif" font-size="14.00" fill="#000000">'' '' ''</text>
</g>
<!-- S38&#45;&gt;S39 -->
<g id="edge47" class="edge">
<title>S38-&gt;S39</title>
<path fill="none" stroke="#000000" d="M1448.1135,-568.7862C1444.6907,-553.9203 1439.6947,-532.2215 1435.3405,-513.3104"/>
<polygon fill="#000000" stroke="#000000" points="1438.7225,-512.3997 1433.0679,-503.44 1431.901,-513.9704 1438.7225,-512.3997"/>
<text text-anchor="middle" x="1445.8939" y="-526.0175" font-family="Times,serif" font-size="14.00" fill="#000000">''</text>
</g>
<!-- S38&#45;&gt;S38 -->
<g id="edge46" class="edge">
<title>S38-&gt;S38</title>
<path fill="none" stroke="#000000" d="M1474.9242,-596.8101C1486.6571,-598.3687 1497.2333,-594.9917 1497.2333,-586.6792 1497.2333,-580.9644 1492.2344,-577.5824 1485.2974,-576.5332"/>
<polygon fill="#000000" stroke="#000000" points="1484.919,-573.0336 1474.9242,-576.5484 1484.9293,-580.0336 1484.919,-573.0336"/>
<text text-anchor="middle" x="1509.2782" y="-582.4792" font-family="Times,serif" font-size="14.00" fill="#000000">char</text>
</g>
<!-- S40 -->
<g id="node40" class="node">
<title>S40</title>
<ellipse fill="none" stroke="#000000" cx="1501.2333" cy="-473.7557" rx="27" ry="18"/>
<text text-anchor="middle" x="1501.2333" y="-469.5557" font-family="Times,serif" font-size="14.00" fill="#000000">S40</text>
</g>
<!-- S38&#45;&gt;S40 -->
<g id="edge48" class="edge">
<title>S38-&gt;S40</title>
<path fill="none" stroke="#000000" d="M1459.7445,-569.3332C1465.4033,-556.2685 1473.3554,-537.9165 1480.3427,-521.8175 1483.3118,-514.9764 1486.5214,-507.5888 1489.5129,-500.706"/>
<polygon fill="#000000" stroke="#000000" points="1492.9093,-501.672 1493.6865,-491.1057 1486.4897,-498.8812 1492.9093,-501.672"/>
<text text-anchor="middle" x="1483.1786" y="-526.0175" font-family="Times,serif" font-size="14.00" fill="#000000">\</text>
</g>
<!-- S40&#45;&gt;S38 -->
<g id="edge49" class="edge">
<title>S40-&gt;S38</title>
<path fill="none" stroke="#000000" d="M1496.1214,-491.7128C1492.1263,-504.9262 1486.1094,-523.196 1479.2333,-538.6175 1475.9643,-545.949 1471.939,-553.6356 1468.004,-560.6576"/>
<polygon fill="#000000" stroke="#000000" points="1464.7384,-559.3143 1462.7735,-569.7254 1470.8019,-562.812 1464.7384,-559.3143"/>
<text text-anchor="middle" x="1498.2782" y="-526.0175" font-family="Times,serif" font-size="14.00" fill="#000000">char</text>
</g>
<!-- S41&#45;&gt;S42 -->
<g id="edge52" class="edge">
<title>S41-&gt;S42</title>
<path fill="none" stroke="#000000" d="M1572.0366,-568.5361C1572.6841,-553.9122 1573.6192,-532.7948 1574.4424,-514.203"/>
<polygon fill="#000000" stroke="#000000" points="1577.9398,-514.3363 1574.8857,-504.1913 1570.9466,-514.0266 1577.9398,-514.3363"/>
<text text-anchor="middle" x="1591.7151" y="-526.0175" font-family="Times,serif" font-size="14.00" fill="#000000">'' '' ''</text>
</g>
<!-- S41&#45;&gt;S41 -->
<g id="edge51" class="edge">
<title>S41-&gt;S41</title>
<path fill="none" stroke="#000000" d="M1593.9242,-596.8101C1605.6571,-598.3687 1616.2333,-594.9917 1616.2333,-586.6792 1616.2333,-580.9644 1611.2344,-577.5824 1604.2974,-576.5332"/>
<polygon fill="#000000" stroke="#000000" points="1603.919,-573.0336 1593.9242,-576.5484 1603.9293,-580.0336 1603.919,-573.0336"/>
<text text-anchor="middle" x="1628.2782" y="-582.4792" font-family="Times,serif" font-size="14.00" fill="#000000">char</text>
</g>
</g>
</svg>